<?xml version="1.0" encoding="utf-8"?>
<svg version="1.1" xmlns:xlink="http://www.w3.org/1999/xlink" width="18px" height="18px" preserveAspectRatio="xMinYMid meet" viewBox="2703 520  18 16" xmlns="http://www.w3.org/2000/svg">
  <path d="M 8875.5 1507  L 8875.5 533  A 5 5 0 0 0 8870 528.5 L 8697 528.5  A 3 3 0 0 0 8694 525.5 A 3 3 0 0 0 8691 528.5 L 6872 528.5  A 3 3 0 0 0 6869 525.5 A 3 3 0 0 0 6866 528.5 L 2712 528.5  " stroke-width="1" stroke-dasharray="17,8" stroke="#f59a23" fill="none" />
  <path d="M 2717.05355339059 533.146446609407  L 2712.40710678119 528.5  L 2717.05355339059 523.853553390593  L 2716.34644660941 523.146446609407  L 2711.34644660941 528.146446609407  L 2710.99289321881 528.5  L 2711.34644660941 528.853553390593  L 2716.34644660941 533.853553390593  L 2717.05355339059 533.146446609407  Z " fill-rule="nonzero" fill="#f59a23" stroke="none" />
</svg>