<?xml version="1.0" encoding="utf-8"?>
<svg version="1.1" xmlns:xlink="http://www.w3.org/1999/xlink" width="15px" height="15px" xmlns="http://www.w3.org/2000/svg">
  <g transform="matrix(1 0 0 1 -2129 -2312 )">
    <path d="M 2136.5 2312  C 2140.7 2312  2144 2315.3  2144 2319.5  C 2144 2323.7  2140.7 2327  2136.5 2327  C 2132.3 2327  2129 2323.7  2129 2319.5  C 2129 2315.3  2132.3 2312  2136.5 2312  Z " fill-rule="nonzero" fill="#ffffff" stroke="none" />
    <path d="M 2136.5 2312.5  C 2140.42 2312.5  2143.5 2315.58  2143.5 2319.5  C 2143.5 2323.42  2140.42 2326.5  2136.5 2326.5  C 2132.58 2326.5  2129.5 2323.42  2129.5 2319.5  C 2129.5 2315.58  2132.58 2312.5  2136.5 2312.5  Z " stroke-width="1" stroke="#797979" fill="none" />
  </g>
</svg>