<?xml version="1.0" encoding="utf-8"?>
<svg version="1.1" xmlns:xlink="http://www.w3.org/1999/xlink" width="24px" height="24px" xmlns="http://www.w3.org/2000/svg">
  <g transform="matrix(1 0 0 1 -1221 -340 )">
    <path d="M 23.5664516129032 3.31313131313131  C 23.8554838709677 3.69023569023569  24 4.14814814814815  24 4.68686868686869  C 24 5.22558922558922  23.8554838709677 5.68350168350168  23.5664516129032 6.06060606060606  L 12.3561290322581 20.6868686868687  L 10.2503225806452 23.4343434343434  C 9.96129032258065 23.8114478114478  9.61032258064516 24  9.19741935483871 24  C 8.78451612903226 24  8.43354838709677 23.8114478114478  8.14451612903226 23.4343434343434  L 6.03870967741935 20.6868686868687  L 0.433548387096774 13.3737373737374  C 0.144516129032258 12.996632996633  0 12.5387205387205  0 12  C 0 11.4612794612795  0.144516129032258 11.003367003367  0.433548387096774 10.6262626262626  L 2.53935483870968 7.87878787878788  C 2.82838709677419 7.5016835016835  3.17935483870968 7.31313131313131  3.59225806451613 7.31313131313131  C 4.00516129032258 7.31313131313131  4.35612903225806 7.5016835016835  4.64516129032258 7.87878787878788  L 9.19741935483871 13.8383838383838  L 19.3548387096774 0.565656565656566  C 19.6438709677419 0.188552188552188  19.9948387096774 0  20.4077419354839 0  C 20.8206451612903 0  21.1716129032258 0.188552188552188  21.4606451612903 0.565656565656566  L 23.5664516129032 3.31313131313131  Z " fill-rule="nonzero" fill="#000000" stroke="none" transform="matrix(1 0 0 1 1221 340 )" />
  </g>
</svg>