<?xml version="1.0" encoding="utf-8"?>
<svg version="1.1" xmlns:xlink="http://www.w3.org/1999/xlink" width="25px" height="25px" xmlns="http://www.w3.org/2000/svg">
  <g transform="matrix(1 0 0 1 -362 -454 )">
    <path d="M 24.1586538461538 8.96345305608066  C 24.7195512820513 9.05797101449276  25 9.29951690821256  25 9.68809073724008  C 25 9.91913463558076  24.8697916666667 10.1711825246797  24.609375 10.4442344045369  L 19.1556490384615 16.0207939508507  L 20.4477163461538 23.8972904851922  C 20.4577323717949 23.970804452846  20.4627403846154 24.0758244066373  20.4627403846154 24.2123503465658  C 20.4627403846154 24.4328922495274  20.41015625 24.6193026675068  20.3049879807692 24.7715816005041  C 20.1998197115385 24.9238605335014  20.0470753205128 25  19.8467548076923 25  C 19.6564503205128 25  19.4561298076923 24.9369880277253  19.2457932692308 24.8109640831758  L 12.5 21.0932577189666  L 5.75420673076923 24.8109640831758  C 5.53385416666667 24.9369880277253  5.33353365384615 25  5.15324519230769 25  C 4.94290865384615 25  4.78515625 24.9238605335014  4.67998798076923 24.7715816005041  C 4.57481971153846 24.6193026675068  4.52223557692308 24.4328922495274  4.52223557692308 24.2123503465658  C 4.52223557692308 24.1493383742911  4.5322516025641 24.0443184204999  4.55228365384615 23.8972904851922  L 5.84435096153846 16.0207939508507  L 0.375600961538462 10.4442344045369  C 0.125200320512821 10.1606805293006  0 9.90863264020164  0 9.68809073724008  C 0 9.29951690821256  0.280448717948718 9.05797101449276  0.841346153846154 8.96345305608066  L 8.38341346153846 7.81348456206679  L 11.7638221153846 0.645872715816004  C 11.9541266025641 0.215290905272  12.1995192307692 0  12.5 0  C 12.8004807692308 0  13.0458733974359 0.215290905272  13.2361778846154 0.645872715816004  L 16.6165865384615 7.81348456206679  L 24.1586538461538 8.96345305608066  Z " fill-rule="nonzero" fill="#000000" stroke="none" transform="matrix(1 0 0 1 362 454 )" />
  </g>
</svg>