<?xml version="1.0" encoding="utf-8"?>
<svg version="1.1" xmlns:xlink="http://www.w3.org/1999/xlink" width="60px" height="60px" xmlns="http://www.w3.org/2000/svg">
  <g transform="matrix(1 0 0 1 -85 -286 )">
    <path d="M 115 286  C 131.8 286  145 299.2  145 316  C 145 332.8  131.8 346  115 346  C 98.2 346  85 332.8  85 316  C 85 299.2  98.2 286  115 286  Z " fill-rule="nonzero" fill="#ffffff" stroke="none" />
    <path d="M 115 286.5  C 131.52 286.5  144.5 299.48  144.5 316  C 144.5 332.52  131.52 345.5  115 345.5  C 98.48 345.5  85.5 332.52  85.5 316  C 85.5 299.48  98.48 286.5  115 286.5  Z " stroke-width="1" stroke="#797979" fill="none" />
  </g>
</svg>