<?xml version="1.0" encoding="utf-8"?>
<svg version="1.1" xmlns:xlink="http://www.w3.org/1999/xlink" width="177px" height="10px" preserveAspectRatio="xMinYMid meet" viewBox="635 986  177 8" xmlns="http://www.w3.org/2000/svg">
  <path d="M 1132 642.5  L 877 642.5  A 3 3 0 0 0 874 639.5 A 3 3 0 0 0 871 642.5 L 812 642.5  A 5 5 0 0 0 807.5 647 L 807.5 704  A 3 3 0 0 1 810.5 707 A 3 3 0 0 1 807.5 710 L 807.5 985  A 5 5 0 0 1 802.5 990.5 L 636 990.5  " stroke-width="1" stroke-dasharray="17,8" stroke="#f59a23" fill="none" />
  <path d="M 641.053553390593 995.146446609407  L 636.407106781186 990.5  L 641.053553390593 985.853553390593  L 640.346446609407 985.146446609407  L 635.346446609407 990.146446609407  L 634.992893218814 990.5  L 635.346446609407 990.853553390593  L 640.346446609407 995.853553390593  L 641.053553390593 995.146446609407  Z " fill-rule="nonzero" fill="#f59a23" stroke="none" />
</svg>