<?xml version="1.0" encoding="utf-8"?>
<svg version="1.1" xmlns:xlink="http://www.w3.org/1999/xlink" width="351px" height="10px" preserveAspectRatio="xMinYMid meet" viewBox="781 560  351 8" xmlns="http://www.w3.org/2000/svg">
  <path d="M 1132 564.5  L 877 564.5  A 3 3 0 0 0 874 561.5 A 3 3 0 0 0 871 564.5 L 791 564.5  A 5 5 0 0 0 786.5 569 L 786.5 704  A 3 3 0 0 1 789.5 707 A 3 3 0 0 1 786.5 710 L 786.5 915  A 5 5 0 0 1 781.5 920.5 L 636 920.5  " stroke-width="1" stroke-dasharray="17,8" stroke="#f59a23" fill="none" />
  <path d="M 641.053553390593 925.146446609407  L 636.407106781186 920.5  L 641.053553390593 915.853553390593  L 640.346446609407 915.146446609407  L 635.346446609407 920.146446609407  L 634.992893218814 920.5  L 635.346446609407 920.853553390593  L 640.346446609407 925.853553390593  L 641.053553390593 925.146446609407  Z " fill-rule="nonzero" fill="#f59a23" stroke="none" />
</svg>