<?xml version="1.0" encoding="utf-8"?>
<svg version="1.1" xmlns:xlink="http://www.w3.org/1999/xlink" width="32px" height="32px" xmlns="http://www.w3.org/2000/svg">
  <g transform="matrix(1 0 0 1 -338 -1632 )">
    <path d="M 354 1632  C 362.96 1632  370 1639.04  370 1648  C 370 1656.96  362.96 1664  354 1664  C 345.04 1664  338 1656.96  338 1648  C 338 1639.04  345.04 1632  354 1632  Z " fill-rule="nonzero" fill="#d9001b" stroke="none" />
    <path d="M 354 1632.5  C 362.68 1632.5  369.5 1639.32  369.5 1648  C 369.5 1656.68  362.68 1663.5  354 1663.5  C 345.32 1663.5  338.5 1656.68  338.5 1648  C 338.5 1639.32  345.32 1632.5  354 1632.5  Z " stroke-width="1" stroke="#797979" fill="none" />
  </g>
</svg>