<?xml version="1.0" encoding="utf-8"?>
<svg version="1.1" xmlns:xlink="http://www.w3.org/1999/xlink" width="37px" height="37px" xmlns="http://www.w3.org/2000/svg">
  <g transform="matrix(1 0 0 1 -3019 -451 )">
    <path d="M 3037.5 451  C 3047.86 451  3056 459.14  3056 469.5  C 3056 479.86  3047.86 488  3037.5 488  C 3027.14 488  3019 479.86  3019 469.5  C 3019 459.14  3027.14 451  3037.5 451  Z " fill-rule="nonzero" fill="#ffffff" stroke="none" />
    <path d="M 3037.5 451.5  C 3047.58 451.5  3055.5 459.42  3055.5 469.5  C 3055.5 479.58  3047.58 487.5  3037.5 487.5  C 3027.42 487.5  3019.5 479.58  3019.5 469.5  C 3019.5 459.42  3027.42 451.5  3037.5 451.5  Z " stroke-width="1" stroke="#797979" fill="none" />
  </g>
</svg>