<?xml version="1.0" encoding="utf-8"?>
<svg version="1.1" xmlns:xlink="http://www.w3.org/1999/xlink" width="19px" height="19px" xmlns="http://www.w3.org/2000/svg">
  <g transform="matrix(1 0 0 1 -638 -1175 )">
    <path d="M 647.5 1175  C 652.82 1175  657 1179.18  657 1184.5  C 657 1189.82  652.82 1194  647.5 1194  C 642.18 1194  638 1189.82  638 1184.5  C 638 1179.18  642.18 1175  647.5 1175  Z " fill-rule="nonzero" fill="#d9001b" stroke="none" />
    <path d="M 647.5 1175.5  C 652.54 1175.5  656.5 1179.46  656.5 1184.5  C 656.5 1189.54  652.54 1193.5  647.5 1193.5  C 642.46 1193.5  638.5 1189.54  638.5 1184.5  C 638.5 1179.46  642.46 1175.5  647.5 1175.5  Z " stroke-width="1" stroke="#797979" fill="none" />
  </g>
</svg>