<?xml version="1.0" encoding="utf-8"?>
<svg version="1.1" xmlns:xlink="http://www.w3.org/1999/xlink" width="18px" height="18px" preserveAspectRatio="xMinYMid meet" viewBox="1004 2280  18 16" xmlns="http://www.w3.org/2000/svg">
  <path d="M 1068.5 802  L 1068.5 2026  A 3 3 0 0 1 1071.5 2029 A 3 3 0 0 1 1068.5 2032 L 1068.5 2157  A 3 3 0 0 1 1071.5 2160 A 3 3 0 0 1 1068.5 2163 L 1068.5 2283  A 5 5 0 0 1 1063.5 2288.5 L 1013 2288.5  " stroke-width="1" stroke-dasharray="17,8" stroke="#f59a23" fill="none" />
  <path d="M 1018.05355339059 2293.14644660941  L 1013.40710678119 2288.5  L 1018.05355339059 2283.85355339059  L 1017.34644660941 2283.14644660941  L 1012.34644660941 2288.14644660941  L 1011.99289321881 2288.5  L 1012.34644660941 2288.85355339059  L 1017.34644660941 2293.85355339059  L 1018.05355339059 2293.14644660941  Z " fill-rule="nonzero" fill="#f59a23" stroke="none" />
</svg>