<?xml version="1.0" encoding="utf-8"?>
<svg version="1.1" xmlns:xlink="http://www.w3.org/1999/xlink" width="12px" height="12px" viewBox="2286 2399.5  12 12" xmlns="http://www.w3.org/2000/svg">
  <path d="M 2292 2399.5  C 2295.36 2399.5  2298 2402.14  2298 2405.5  C 2298 2408.86  2295.36 2411.5  2292 2411.5  C 2288.64 2411.5  2286 2408.86  2286 2405.5  C 2286 2402.14  2288.64 2399.5  2292 2399.5  Z " fill-rule="nonzero" fill="#f0f0f0" stroke="none" />
  <path d="M 2292 2400  C 2295.08 2400  2297.5 2402.42  2297.5 2405.5  C 2297.5 2408.58  2295.08 2411  2292 2411  C 2288.92 2411  2286.5 2408.58  2286.5 2405.5  C 2286.5 2402.42  2288.92 2400  2292 2400  Z " stroke-width="1" stroke="#797979" fill="none" />
  <path d="M 2292 2408.5  C 2290.32 2408.5  2289 2407.18  2289 2405.5  C 2289 2403.82  2290.32 2402.5  2292 2402.5  C 2293.68 2402.5  2295 2403.82  2295 2405.5  C 2295 2407.18  2293.68 2408.5  2292 2408.5  " fill-rule="nonzero" fill="#797979" stroke="none" />
</svg>