<?xml version="1.0" encoding="utf-8"?>
<svg version="1.1" xmlns:xlink="http://www.w3.org/1999/xlink" width="12px" height="12px" viewBox="2286 2423.5  12 12" xmlns="http://www.w3.org/2000/svg">
  <path d="M 2292 2423.5  C 2295.36 2423.5  2298 2426.14  2298 2429.5  C 2298 2432.86  2295.36 2435.5  2292 2435.5  C 2288.64 2435.5  2286 2432.86  2286 2429.5  C 2286 2426.14  2288.64 2423.5  2292 2423.5  Z " fill-rule="nonzero" fill="#f0f0f0" stroke="none" />
  <path d="M 2292 2424  C 2295.08 2424  2297.5 2426.42  2297.5 2429.5  C 2297.5 2432.58  2295.08 2435  2292 2435  C 2288.92 2435  2286.5 2432.58  2286.5 2429.5  C 2286.5 2426.42  2288.92 2424  2292 2424  Z " stroke-width="1" stroke="#797979" fill="none" />
  <path d="M 2292 2432.5  C 2290.32 2432.5  2289 2431.18  2289 2429.5  C 2289 2427.82  2290.32 2426.5  2292 2426.5  C 2293.68 2426.5  2295 2427.82  2295 2429.5  C 2295 2431.18  2293.68 2432.5  2292 2432.5  " fill-rule="nonzero" fill="#797979" stroke="none" />
</svg>