<?xml version="1.0" encoding="utf-8"?>
<svg version="1.1" xmlns:xlink="http://www.w3.org/1999/xlink" width="12px" height="12px" viewBox="2286 2450.5  12 12" xmlns="http://www.w3.org/2000/svg">
  <path d="M 2292 2450.5  C 2295.36 2450.5  2298 2453.14  2298 2456.5  C 2298 2459.86  2295.36 2462.5  2292 2462.5  C 2288.64 2462.5  2286 2459.86  2286 2456.5  C 2286 2453.14  2288.64 2450.5  2292 2450.5  Z " fill-rule="nonzero" fill="#ffffff" stroke="none" />
  <path d="M 2292 2451  C 2295.08 2451  2297.5 2453.42  2297.5 2456.5  C 2297.5 2459.58  2295.08 2462  2292 2462  C 2288.92 2462  2286.5 2459.58  2286.5 2456.5  C 2286.5 2453.42  2288.92 2451  2292 2451  Z " stroke-width="1" stroke="#797979" fill="none" />
  <path d="M 2292 2459.5  C 2290.32 2459.5  2289 2458.18  2289 2456.5  C 2289 2454.82  2290.32 2453.5  2292 2453.5  C 2293.68 2453.5  2295 2454.82  2295 2456.5  C 2295 2458.18  2293.68 2459.5  2292 2459.5  " fill-rule="nonzero" fill="#797979" stroke="none" />
</svg>