<?xml version="1.0" encoding="utf-8"?>
<svg version="1.1" xmlns:xlink="http://www.w3.org/1999/xlink" width="33px" height="22px" xmlns="http://www.w3.org/2000/svg">
  <g transform="matrix(1 0 0 1 -2285 -2277 )">
    <path d="M 10.4055989583333 10.4915364583333  C 10.5822482638889 10.6490885416667  10.6705729166667 10.8663194444444  10.6705729166667 11.1432291666667  C 10.6705729166667 11.4965277777778  10.548828125 11.7901475694444  10.3053385416667 12.0240885416667  C 10.0618489583333 12.2580295138889  9.76345486111111 12.375  9.41015625 12.375  C 9.13324652777778 12.375  8.91124131944444 12.2986111111111  8.744140625 12.1458333333333  C 8.57703993055556 11.9930555555556  8.49348958333333 11.7829861111111  8.49348958333333 11.515625  C 8.49348958333333 11.1623263888889  8.61284722222222 10.8639322916667  8.8515625 10.6204427083333  C 9.09027777777778 10.376953125  9.38628472222222 10.2552083333333  9.73958333333333 10.2552083333333  C 10.0069444444444 10.2552083333333  10.2289496527778 10.333984375  10.4055989583333 10.4915364583333  Z M 21.7421875 8.572265625  C 21.8567708333333 8.67252604166667  21.9140625 8.81814236111111  21.9140625 9.00911458333333  C 21.9140625 9.41015625  21.8090277777778 9.68229166666667  21.5989583333333 9.82552083333333  C 21.3888888888889 9.96875  21.0737847222222 10.0403645833333  20.6536458333333 10.0403645833333  L 20.1953125 10.0546875  L 20.4388020833333 8.52213541666667  C 20.4578993055556 8.41710069444444  20.5199652777778 8.36458333333333  20.625 8.36458333333333  L 20.8828125 8.36458333333333  C 21.0928819444444 8.36458333333333  21.2599826388889 8.37413194444444  21.3841145833333 8.39322916666667  C 21.5082465277778 8.41232638888889  21.6276041666667 8.47200520833333  21.7421875 8.572265625  Z M 26.6764322916667 10.4915364583333  C 26.8530815972222 10.6490885416667  26.94140625 10.8663194444444  26.94140625 11.1432291666667  C 26.94140625 11.4869791666667  26.8196614583333 11.7782118055556  26.576171875 12.0169270833333  C 26.3326822916667 12.2556423611111  26.0390625 12.375  25.6953125 12.375  C 25.4184027777778 12.375  25.1940104166667 12.2986111111111  25.0221354166667 12.1458333333333  C 24.8502604166667 11.9930555555556  24.7643229166667 11.7829861111111  24.7643229166667 11.515625  C 24.7643229166667 11.1623263888889  24.8836805555556 10.8639322916667  25.1223958333333 10.6204427083333  C 25.3611111111111 10.376953125  25.6571180555556 10.2552083333333  26.0104166666667 10.2552083333333  C 26.2777777777778 10.2552083333333  26.4997829861111 10.333984375  26.6764322916667 10.4915364583333  Z M 6.64583333333333 10.6204427083333  C 7.11371527777778 10.1573350694444  7.34765625 9.51519097222222  7.34765625 8.69401041666667  C 7.34765625 8.13064236111111  7.16384548611111 7.72243923611111  6.79622395833333 7.46940104166667  C 6.42860243055556 7.21636284722222  5.94878472222222 7.08984375  5.35677083333333 7.08984375  L 3.06510416666667 7.08984375  C 2.88368055555556 7.08984375  2.78342013888889 7.18055555555555  2.76432291666667 7.36197916666667  L 1.83333333333333 13.2057291666667  C 1.82378472222222 13.2630208333333  1.83810763888889 13.3155381944444  1.87630208333333 13.36328125  C 1.91449652777778 13.4110243055556  1.96223958333333 13.4348958333333  2.01953125 13.4348958333333  L 3.10807291666667 13.4348958333333  C 3.29904513888889 13.4348958333333  3.40407986111111 13.3441840277778  3.42317708333333 13.1627604166667  L 3.68098958333333 11.5872395833333  C 3.69053819444445 11.5108506944444  3.72395833333333 11.4487847222222  3.78125 11.4010416666667  C 3.83854166666667 11.3532986111111  3.91015625 11.322265625  3.99609375 11.3079427083333  C 4.08203125 11.2936197916667  4.16319444444444 11.2864583333333  4.23958333333333 11.2864583333333  C 4.31597222222222 11.2864583333333  4.40668402777778 11.2912326388889  4.51171875 11.30078125  C 4.61675347222222 11.3103298611111  4.68359375 11.3151041666667  4.71223958333333 11.3151041666667  C 5.53342013888889 11.3151041666667  6.17795138888889 11.0835503472222  6.64583333333333 10.6204427083333  Z M 11.4583333333333 13.4348958333333  C 11.6397569444444 13.4348958333333  11.7447916666667 13.3441840277778  11.7734375 13.1627604166667  L 12.3606770833333 9.42447916666667  C 12.3702256944444 9.3671875  12.3559027777778 9.31467013888889  12.3177083333333 9.26692708333333  C 12.2795138888889 9.21918402777778  12.2317708333333 9.1953125  12.1744791666667 9.1953125  L 11.0859375 9.1953125  C 10.9522569444444 9.1953125  10.87109375 9.35286458333333  10.8424479166667 9.66796875  C 10.5846354166667 9.28602430555555  10.1310763888889 9.09505208333333  9.48177083333333 9.09505208333333  C 8.79427083333333 9.09505208333333  8.20941840277778 9.35286458333333  7.72721354166667 9.86848958333333  C 7.24500868055556 10.3841145833333  7.00390625 10.9904513888889  7.00390625 11.6875  C 7.00390625 12.2508680555556  7.16861979166667 12.6996527777778  7.498046875 13.0338541666667  C 7.82747395833333 13.3680555555556  8.26909722222222 13.53515625  8.82291666666667 13.53515625  C 9.09027777777778 13.53515625  9.3671875 13.4778645833333  9.65364583333333 13.36328125  C 9.94010416666667 13.2486979166667  10.1692708333333 13.0959201388889  10.3411458333333 12.9049479166667  C 10.3029513888889 13.01953125  10.2838541666667 13.1197916666667  10.2838541666667 13.2057291666667  C 10.2838541666667 13.3585069444444  10.3459201388889 13.4348958333333  10.4700520833333 13.4348958333333  L 11.4583333333333 13.4348958333333  Z M 18.1471354166667 9.49609375  C 18.1662326388889 9.47699652777778  18.17578125 9.44357638888889  18.17578125 9.39583333333333  C 18.17578125 9.34809027777778  18.1566840277778 9.302734375  18.1184895833333 9.259765625  C 18.0802951388889 9.216796875  18.0373263888889 9.1953125  17.9895833333333 9.1953125  L 16.88671875 9.1953125  C 16.7816840277778 9.1953125  16.6957465277778 9.24305555555555  16.62890625 9.33854166666667  L 15.1106770833333 11.5729166666667  L 14.48046875 9.42447916666667  C 14.4327256944444 9.27170138888889  14.3276909722222 9.1953125  14.1653645833333 9.1953125  L 13.0911458333333 9.1953125  C 13.0434027777778 9.1953125  13.0004340277778 9.216796875  12.9622395833333 9.259765625  C 12.9240451388889 9.302734375  12.9049479166667 9.34809027777778  12.9049479166667 9.39583333333333  C 12.9049479166667 9.41493055555555  12.998046875 9.69661458333333  13.1842447916667 10.2408854166667  C 13.3704427083333 10.78515625  13.5709635416667 11.3723958333333  13.7858072916667 12.0026041666667  C 14.0006510416667 12.6328125  14.1128472222222 12.9670138888889  14.1223958333333 13.0052083333333  C 13.3394097222222 14.0746527777778  12.9479166666667 14.6475694444444  12.9479166666667 14.7239583333333  C 12.9479166666667 14.8480902777778  13.0099826388889 14.91015625  13.1341145833333 14.91015625  L 14.2369791666667 14.91015625  C 14.3420138888889 14.91015625  14.4279513888889 14.8624131944444  14.4947916666667 14.7669270833333  L 18.1471354166667 9.49609375  Z M 22.9166666666667 10.6204427083333  C 23.3845486111111 10.1573350694444  23.6184895833333 9.51519097222222  23.6184895833333 8.69401041666667  C 23.6184895833333 8.13064236111111  23.4346788194444 7.72243923611111  23.0670572916667 7.46940104166667  C 22.6994357638889 7.21636284722222  22.2196180555556 7.08984375  21.6276041666667 7.08984375  L 19.3502604166667 7.08984375  C 19.1592881944444 7.08984375  19.0542534722222 7.18055555555555  19.03515625 7.36197916666667  L 18.1041666666667 13.2057291666667  C 18.0946180555556 13.2630208333333  18.1089409722222 13.3155381944444  18.1471354166667 13.36328125  C 18.1853298611111 13.4110243055556  18.2330729166667 13.4348958333333  18.2903645833333 13.4348958333333  L 19.46484375 13.4348958333333  C 19.5794270833333 13.4348958333333  19.6558159722222 13.3728298611111  19.6940104166667 13.2486979166667  L 19.9518229166667 11.5872395833333  C 19.9613715277778 11.5108506944444  19.9947916666667 11.4487847222222  20.0520833333333 11.4010416666667  C 20.109375 11.3532986111111  20.1809895833333 11.322265625  20.2669270833333 11.3079427083333  C 20.3528645833333 11.2936197916667  20.4340277777778 11.2864583333333  20.5104166666667 11.2864583333333  C 20.5868055555556 11.2864583333333  20.6775173611111 11.2912326388889  20.7825520833333 11.30078125  C 20.8875868055556 11.3103298611111  20.9544270833333 11.3151041666667  20.9830729166667 11.3151041666667  C 21.8042534722222 11.3151041666667  22.4487847222222 11.0835503472222  22.9166666666667 10.6204427083333  Z M 27.7291666666667 13.4348958333333  C 27.9105902777778 13.4348958333333  28.015625 13.3441840277778  28.0442708333333 13.1627604166667  L 28.6315104166667 9.42447916666667  C 28.6410590277778 9.3671875  28.6267361111111 9.31467013888889  28.5885416666667 9.26692708333333  C 28.5503472222222 9.21918402777778  28.5026041666667 9.1953125  28.4453125 9.1953125  L 27.3567708333333 9.1953125  C 27.2230902777778 9.1953125  27.1419270833333 9.35286458333333  27.11328125 9.66796875  C 26.8650173611111 9.28602430555555  26.4114583333333 9.09505208333333  25.7526041666667 9.09505208333333  C 25.0651041666667 9.09505208333333  24.4802517361111 9.35286458333333  23.998046875 9.86848958333333  C 23.5158420138889 10.3841145833333  23.2747395833333 10.9904513888889  23.2747395833333 11.6875  C 23.2747395833333 12.2508680555556  23.439453125 12.6996527777778  23.7688802083333 13.0338541666667  C 24.0983072916667 13.3680555555556  24.5399305555556 13.53515625  25.09375 13.53515625  C 25.3706597222222 13.53515625  25.65234375 13.4778645833333  25.9388020833333 13.36328125  C 26.2252604166667 13.2486979166667  26.4496527777778 13.0959201388889  26.6119791666667 12.9049479166667  C 26.6119791666667 12.9144965277778  26.6024305555556 12.9574652777778  26.5833333333333 13.0338541666667  C 26.5642361111111 13.1102430555556  26.5546875 13.1675347222222  26.5546875 13.2057291666667  C 26.5546875 13.3585069444444  26.6167534722222 13.4348958333333  26.7408854166667 13.4348958333333  L 27.7291666666667 13.4348958333333  Z M 30.2356770833333 13.1627604166667  L 31.1666666666667 7.3046875  L 31.1666666666667 7.29036458333333  C 31.1666666666667 7.15668402777778  31.1046006944444 7.08984375  30.98046875 7.08984375  L 29.9205729166667 7.08984375  C 29.8155381944444 7.08984375  29.7534722222222 7.14236111111111  29.734375 7.24739583333333  L 28.8033854166667 13.2057291666667  L 28.7890625 13.234375  C 28.7890625 13.2821180555556  28.8081597222222 13.3274739583333  28.8463541666667 13.3704427083333  C 28.8845486111111 13.4134114583333  28.9322916666667 13.4348958333333  28.9895833333333 13.4348958333333  L 29.9348958333333 13.4348958333333  C 30.1163194444444 13.4348958333333  30.2165798611111 13.3441840277778  30.2356770833333 13.1627604166667  Z M 5.44270833333333 8.529296875  C 5.61458333333333 8.63910590277778  5.671875 8.87065972222222  5.61458333333333 9.22395833333333  C 5.56684027777778 9.55815972222222  5.44270833333333 9.77777777777778  5.2421875 9.8828125  C 5.04166666666667 9.98784722222222  4.75520833333333 10.0403645833333  4.3828125 10.0403645833333  L 3.91015625 10.0546875  L 4.15364583333333 8.52213541666667  C 4.17274305555556 8.41710069444444  4.23480902777778 8.36458333333333  4.33984375 8.36458333333333  L 4.61197916666667 8.36458333333333  C 4.99392361111111 8.36458333333333  5.27083333333333 8.41948784722222  5.44270833333333 8.529296875  Z M 32.4557291666667 0.544270833333334  C 32.8185763888889 0.907118055555554  33 1.33680555555555  33 1.83333333333333  L 33 20.1666666666667  C 33 20.6631944444444  32.8185763888889 21.0928819444444  32.4557291666667 21.4557291666667  C 32.0928819444444 21.8185763888889  31.6631944444444 22  31.1666666666667 22  L 1.83333333333333 22  C 1.33680555555556 22  0.907118055555556 21.8185763888889  0.544270833333333 21.4557291666667  C 0.181423611111111 21.0928819444444  0 20.6631944444444  0 20.1666666666667  L 0 1.83333333333333  C 0 1.33680555555555  0.181423611111111 0.907118055555554  0.544270833333333 0.544270833333334  C 0.907118055555556 0.181423611111109  1.33680555555556 0  1.83333333333333 0  L 31.1666666666667 0  C 31.6631944444444 0  32.0928819444444 0.181423611111109  32.4557291666667 0.544270833333334  Z " fill-rule="nonzero" fill="#000000" stroke="none" transform="matrix(1 0 0 1 2285 2277 )" />
  </g>
</svg>