<?xml version="1.0" encoding="utf-8"?>
<svg version="1.1" xmlns:xlink="http://www.w3.org/1999/xlink" width="299px" height="28px" viewBox="283 545  299 28" xmlns="http://www.w3.org/2000/svg">
  <path d="M 284 550  A 4 4 0 0 1 288 546 L 577 546  A 4 4 0 0 1 581 550 L 581 568  A 4 4 0 0 1 577 572 L 288 572  A 4 4 0 0 1 284 568 L 284 550  Z " fill-rule="nonzero" fill="#f0f0f0" stroke="none" />
  <path d="M 283.5 550  A 4.5 4.5 0 0 1 288 545.5 L 577 545.5  A 4.5 4.5 0 0 1 581.5 550 L 581.5 568  A 4.5 4.5 0 0 1 577 572.5 L 288 572.5  A 4.5 4.5 0 0 1 283.5 568 L 283.5 550  Z " stroke-width="1" stroke="#bcbcbc" fill="none" stroke-opacity="0.349019607843137" />
</svg>