<?xml version="1.0" encoding="utf-8"?>
<svg version="1.1" xmlns:xlink="http://www.w3.org/1999/xlink" width="10px" height="10px" xmlns="http://www.w3.org/2000/svg">
  <g transform="matrix(1 0 0 1 -583 -554 )">
    <path d="M 7.14285714285714 2.14285714285714  L 9.46428571428571 2.14285714285714  C 9.61309523809524 2.14285714285714  9.73958333333333 2.19494047619048  9.84375 2.29910714285714  C 9.94791666666667 2.40327380952381  10 2.5297619047619  10 2.67857142857143  L 10 9.46428571428571  C 10 9.61309523809524  9.94791666666667 9.73958333333333  9.84375 9.84375  C 9.73958333333333 9.94791666666667  9.61309523809524 10  9.46428571428571 10  L 4.10714285714286 10  C 3.95833333333333 10  3.83184523809524 9.94791666666667  3.72767857142857 9.84375  C 3.62351190476191 9.73958333333333  3.57142857142857 9.61309523809524  3.57142857142857 9.46428571428571  L 3.57142857142857 7.85714285714286  L 0.535714285714286 7.85714285714286  C 0.386904761904762 7.85714285714286  0.260416666666667 7.80505952380952  0.15625 7.70089285714286  C 0.0520833333333333 7.59672619047619  0 7.47023809523809  0 7.32142857142857  L 0 3.57142857142857  C 0 3.42261904761905  0.037202380952381 3.25892857142857  0.111607142857143 3.08035714285714  C 0.186011904761905 2.90178571428571  0.275297619047619 2.76041666666667  0.379464285714286 2.65625  L 2.65625 0.379464285714286  C 2.76041666666667 0.275297619047619  2.90178571428571 0.186011904761905  3.08035714285714 0.111607142857143  C 3.25892857142857 0.0372023809523814  3.42261904761905 0  3.57142857142857 0  L 5.89285714285714 0  C 6.04166666666667 0  6.16815476190476 0.0520833333333337  6.27232142857143 0.15625  C 6.37648809523809 0.260416666666666  6.42857142857143 0.386904761904762  6.42857142857143 0.535714285714286  L 6.42857142857143 2.36607142857143  C 6.68154761904762 2.2172619047619  6.91964285714286 2.14285714285714  7.14285714285714 2.14285714285714  Z M 6.42857142857143 5  L 6.42857142857143 3.33147321428571  L 4.76004464285714 5  L 6.42857142857143 5  Z M 2.85714285714286 2.85714285714286  L 2.85714285714286 1.18861607142857  L 1.18861607142857 2.85714285714286  L 2.85714285714286 2.85714285714286  Z M 3.68303571428571 5.22321428571429  C 3.75744047619048 5.04464285714286  3.84672619047619 4.90327380952381  3.95089285714286 4.79910714285714  L 5.71428571428571 3.03571428571429  L 5.71428571428571 0.714285714285714  L 3.57142857142857 0.714285714285714  L 3.57142857142857 3.03571428571429  C 3.57142857142857 3.18452380952381  3.51934523809524 3.3110119047619  3.41517857142857 3.41517857142857  C 3.31101190476191 3.51934523809524  3.18452380952381 3.57142857142857  3.03571428571429 3.57142857142857  L 0.714285714285714 3.57142857142857  L 0.714285714285714 7.14285714285714  L 3.57142857142857 7.14285714285714  L 3.57142857142857 5.71428571428571  C 3.57142857142857 5.56547619047619  3.60863095238095 5.40178571428571  3.68303571428571 5.22321428571429  Z M 4.28571428571429 9.28571428571429  L 9.28571428571429 9.28571428571429  L 9.28571428571429 2.85714285714286  L 7.14285714285714 2.85714285714286  L 7.14285714285714 5.17857142857143  C 7.14285714285714 5.32738095238095  7.09077380952381 5.45386904761905  6.98660714285714 5.55803571428571  C 6.88244047619048 5.66220238095238  6.75595238095238 5.71428571428571  6.60714285714286 5.71428571428571  L 4.28571428571429 5.71428571428571  L 4.28571428571429 9.28571428571429  Z " fill-rule="nonzero" fill="#000000" stroke="none" transform="matrix(1 0 0 1 583 554 )" />
  </g>
</svg>