<?xml version="1.0" encoding="utf-8"?>
<svg version="1.1" xmlns:xlink="http://www.w3.org/1999/xlink" width="12px" height="12px" viewBox="221 3604.5  12 12" xmlns="http://www.w3.org/2000/svg">
  <path d="M 227 3604.5  C 230.36 3604.5  233 3607.14  233 3610.5  C 233 3613.86  230.36 3616.5  227 3616.5  C 223.64 3616.5  221 3613.86  221 3610.5  C 221 3607.14  223.64 3604.5  227 3604.5  Z " fill-rule="nonzero" fill="#f0f0f0" stroke="none" />
  <path d="M 227 3605  C 230.08 3605  232.5 3607.42  232.5 3610.5  C 232.5 3613.58  230.08 3616  227 3616  C 223.92 3616  221.5 3613.58  221.5 3610.5  C 221.5 3607.42  223.92 3605  227 3605  Z " stroke-width="1" stroke="#797979" fill="none" />
  <path d="M 227 3613.5  C 225.32 3613.5  224 3612.18  224 3610.5  C 224 3608.82  225.32 3607.5  227 3607.5  C 228.68 3607.5  230 3608.82  230 3610.5  C 230 3612.18  228.68 3613.5  227 3613.5  " fill-rule="nonzero" fill="#797979" stroke="none" />
</svg>