<?xml version="1.0" encoding="utf-8"?>
<svg version="1.1" xmlns:xlink="http://www.w3.org/1999/xlink" width="12px" height="12px" viewBox="989 4829  12 12" xmlns="http://www.w3.org/2000/svg">
  <path d="M 995 4829  C 998.36 4829  1001 4831.64  1001 4835  C 1001 4838.36  998.36 4841  995 4841  C 991.64 4841  989 4838.36  989 4835  C 989 4831.64  991.64 4829  995 4829  Z " fill-rule="nonzero" fill="#f0f0f0" stroke="none" />
  <path d="M 995 4829.5  C 998.08 4829.5  1000.5 4831.92  1000.5 4835  C 1000.5 4838.08  998.08 4840.5  995 4840.5  C 991.92 4840.5  989.5 4838.08  989.5 4835  C 989.5 4831.92  991.92 4829.5  995 4829.5  Z " stroke-width="1" stroke="#797979" fill="none" />
  <path d="M 995 4838  C 993.32 4838  992 4836.68  992 4835  C 992 4833.32  993.32 4832  995 4832  C 996.68 4832  998 4833.32  998 4835  C 998 4836.68  996.68 4838  995 4838  " fill-rule="nonzero" fill="#797979" stroke="none" />
</svg>