<?xml version="1.0" encoding="utf-8"?>
<svg version="1.1" xmlns:xlink="http://www.w3.org/1999/xlink" width="12px" height="12px" viewBox="221 5946.5  12 12" xmlns="http://www.w3.org/2000/svg">
  <path d="M 227 5946.5  C 230.36 5946.5  233 5949.14  233 5952.5  C 233 5955.86  230.36 5958.5  227 5958.5  C 223.64 5958.5  221 5955.86  221 5952.5  C 221 5949.14  223.64 5946.5  227 5946.5  Z " fill-rule="nonzero" fill="#ffffff" stroke="none" />
  <path d="M 227 5947  C 230.08 5947  232.5 5949.42  232.5 5952.5  C 232.5 5955.58  230.08 5958  227 5958  C 223.92 5958  221.5 5955.58  221.5 5952.5  C 221.5 5949.42  223.92 5947  227 5947  Z " stroke-width="1" stroke="#797979" fill="none" />
  <path d="M 227 5955.5  C 225.32 5955.5  224 5954.18  224 5952.5  C 224 5950.82  225.32 5949.5  227 5949.5  C 228.68 5949.5  230 5950.82  230 5952.5  C 230 5954.18  228.68 5955.5  227 5955.5  " fill-rule="nonzero" fill="#797979" stroke="none" />
</svg>