<?xml version="1.0" encoding="utf-8"?>
<svg version="1.1" xmlns:xlink="http://www.w3.org/1999/xlink" width="12px" height="12px" viewBox="221 7077.5  12 12" xmlns="http://www.w3.org/2000/svg">
  <path d="M 227 7077.5  C 230.36 7077.5  233 7080.14  233 7083.5  C 233 7086.86  230.36 7089.5  227 7089.5  C 223.64 7089.5  221 7086.86  221 7083.5  C 221 7080.14  223.64 7077.5  227 7077.5  Z " fill-rule="nonzero" fill="#ffffff" stroke="none" />
  <path d="M 227 7078  C 230.08 7078  232.5 7080.42  232.5 7083.5  C 232.5 7086.58  230.08 7089  227 7089  C 223.92 7089  221.5 7086.58  221.5 7083.5  C 221.5 7080.42  223.92 7078  227 7078  Z " stroke-width="1" stroke="#797979" fill="none" />
  <path d="M 227 7086.5  C 225.32 7086.5  224 7085.18  224 7083.5  C 224 7081.82  225.32 7080.5  227 7080.5  C 228.68 7080.5  230 7081.82  230 7083.5  C 230 7085.18  228.68 7086.5  227 7086.5  " fill-rule="nonzero" fill="#797979" stroke="none" />
</svg>