<?xml version="1.0" encoding="utf-8"?>
<svg version="1.1" xmlns:xlink="http://www.w3.org/1999/xlink" width="12px" height="12px" viewBox="221 8140.5  12 12" xmlns="http://www.w3.org/2000/svg">
  <path d="M 227 8140.5  C 230.36 8140.5  233 8143.14  233 8146.5  C 233 8149.86  230.36 8152.5  227 8152.5  C 223.64 8152.5  221 8149.86  221 8146.5  C 221 8143.14  223.64 8140.5  227 8140.5  Z " fill-rule="nonzero" fill="#ffffff" stroke="none" />
  <path d="M 227 8141  C 230.08 8141  232.5 8143.42  232.5 8146.5  C 232.5 8149.58  230.08 8152  227 8152  C 223.92 8152  221.5 8149.58  221.5 8146.5  C 221.5 8143.42  223.92 8141  227 8141  Z " stroke-width="1" stroke="#797979" fill="none" />
  <path d="M 227 8149.5  C 225.32 8149.5  224 8148.18  224 8146.5  C 224 8144.82  225.32 8143.5  227 8143.5  C 228.68 8143.5  230 8144.82  230 8146.5  C 230 8148.18  228.68 8149.5  227 8149.5  " fill-rule="nonzero" fill="#797979" stroke="none" />
</svg>