<?xml version="1.0" encoding="utf-8"?>
<svg version="1.1" xmlns:xlink="http://www.w3.org/1999/xlink" width="12px" height="12px" viewBox="875 8140.5  12 12" xmlns="http://www.w3.org/2000/svg">
  <path d="M 881 8140.5  C 884.36 8140.5  887 8143.14  887 8146.5  C 887 8149.86  884.36 8152.5  881 8152.5  C 877.64 8152.5  875 8149.86  875 8146.5  C 875 8143.14  877.64 8140.5  881 8140.5  Z " fill-rule="nonzero" fill="#f0f0f0" stroke="none" />
  <path d="M 881 8141  C 884.08 8141  886.5 8143.42  886.5 8146.5  C 886.5 8149.58  884.08 8152  881 8152  C 877.92 8152  875.5 8149.58  875.5 8146.5  C 875.5 8143.42  877.92 8141  881 8141  Z " stroke-width="1" stroke="#797979" fill="none" />
  <path d="M 881 8149.5  C 879.32 8149.5  878 8148.18  878 8146.5  C 878 8144.82  879.32 8143.5  881 8143.5  C 882.68 8143.5  884 8144.82  884 8146.5  C 884 8148.18  882.68 8149.5  881 8149.5  " fill-rule="nonzero" fill="#797979" stroke="none" />
</svg>