<?xml version="1.0" encoding="utf-8"?>
<svg version="1.1" xmlns:xlink="http://www.w3.org/1999/xlink" width="12px" height="12px" viewBox="221 2394.5  12 12" xmlns="http://www.w3.org/2000/svg">
  <path d="M 227 2394.5  C 230.36 2394.5  233 2397.14  233 2400.5  C 233 2403.86  230.36 2406.5  227 2406.5  C 223.64 2406.5  221 2403.86  221 2400.5  C 221 2397.14  223.64 2394.5  227 2394.5  Z " fill-rule="nonzero" fill="#ffffff" stroke="none" />
  <path d="M 227 2395  C 230.08 2395  232.5 2397.42  232.5 2400.5  C 232.5 2403.58  230.08 2406  227 2406  C 223.92 2406  221.5 2403.58  221.5 2400.5  C 221.5 2397.42  223.92 2395  227 2395  Z " stroke-width="1" stroke="#797979" fill="none" />
  <path d="M 227 2403.5  C 225.32 2403.5  224 2402.18  224 2400.5  C 224 2398.82  225.32 2397.5  227 2397.5  C 228.68 2397.5  230 2398.82  230 2400.5  C 230 2402.18  228.68 2403.5  227 2403.5  " fill-rule="nonzero" fill="#797979" stroke="none" />
</svg>