<?xml version="1.0" encoding="utf-8"?>
<svg version="1.1" xmlns:xlink="http://www.w3.org/1999/xlink" width="12px" height="12px" viewBox="221 776.5  12 12" xmlns="http://www.w3.org/2000/svg">
  <path d="M 227 776.5  C 230.36 776.5  233 779.14  233 782.5  C 233 785.86  230.36 788.5  227 788.5  C 223.64 788.5  221 785.86  221 782.5  C 221 779.14  223.64 776.5  227 776.5  Z " fill-rule="nonzero" fill="#f0f0f0" stroke="none" />
  <path d="M 227 777  C 230.08 777  232.5 779.42  232.5 782.5  C 232.5 785.58  230.08 788  227 788  C 223.92 788  221.5 785.58  221.5 782.5  C 221.5 779.42  223.92 777  227 777  Z " stroke-width="1" stroke="#797979" fill="none" />
  <path d="M 227 785.5  C 225.32 785.5  224 784.18  224 782.5  C 224 780.82  225.32 779.5  227 779.5  C 228.68 779.5  230 780.82  230 782.5  C 230 784.18  228.68 785.5  227 785.5  " fill-rule="nonzero" fill="#797979" stroke="none" />
</svg>