<?xml version="1.0" encoding="utf-8"?>
<svg version="1.1" xmlns:xlink="http://www.w3.org/1999/xlink" width="12px" height="12px" viewBox="874 1067.5  12 12" xmlns="http://www.w3.org/2000/svg">
  <path d="M 880 1067.5  C 883.36 1067.5  886 1070.14  886 1073.5  C 886 1076.86  883.36 1079.5  880 1079.5  C 876.64 1079.5  874 1076.86  874 1073.5  C 874 1070.14  876.64 1067.5  880 1067.5  Z " fill-rule="nonzero" fill="#f0f0f0" stroke="none" />
  <path d="M 880 1068  C 883.08 1068  885.5 1070.42  885.5 1073.5  C 885.5 1076.58  883.08 1079  880 1079  C 876.92 1079  874.5 1076.58  874.5 1073.5  C 874.5 1070.42  876.92 1068  880 1068  Z " stroke-width="1" stroke="#797979" fill="none" />
  <path d="M 880 1076.5  C 878.32 1076.5  877 1075.18  877 1073.5  C 877 1071.82  878.32 1070.5  880 1070.5  C 881.68 1070.5  883 1071.82  883 1073.5  C 883 1075.18  881.68 1076.5  880 1076.5  " fill-rule="nonzero" fill="#797979" stroke="none" />
</svg>