<?xml version="1.0" encoding="utf-8"?>
<svg version="1.1" xmlns:xlink="http://www.w3.org/1999/xlink" width="203px" height="10px" preserveAspectRatio="xMinYMid meet" viewBox="602 6314  203 8" xmlns="http://www.w3.org/2000/svg">
  <path d="M 602 6318.5  L 795 6318.5  A 5 5 0 0 0 800.5 6313 L 800.5 5041  A 3 3 0 0 0 803.5 5038 A 3 3 0 0 0 800.5 5035 L 800.5 4488  A 3 3 0 0 0 803.5 4485 A 3 3 0 0 0 800.5 4482 L 800.5 2739  A 3 3 0 0 0 803.5 2736 A 3 3 0 0 0 800.5 2733 L 800.5 1830  A 5 5 0 0 1 805.5 1825.5 L 1014 1825.5  " stroke-width="1" stroke-dasharray="17,8" stroke="#f59a23" fill="none" />
  <path d="M 1008.94644660941 1820.85355339059  L 1013.59289321881 1825.5  L 1008.94644660941 1830.14644660941  L 1009.65355339059 1830.85355339059  L 1014.65355339059 1825.85355339059  L 1015.00710678119 1825.5  L 1014.65355339059 1825.14644660941  L 1009.65355339059 1820.14644660941  L 1008.94644660941 1820.85355339059  Z " fill-rule="nonzero" fill="#f59a23" stroke="none" />
</svg>