<?xml version="1.0" encoding="utf-8"?>
<svg version="1.1" xmlns:xlink="http://www.w3.org/1999/xlink" width="179px" height="10px" preserveAspectRatio="xMinYMid meet" viewBox="836 1821  179 8" xmlns="http://www.w3.org/2000/svg">
  <path d="M 265.5 5048  L 265.5 5043  A 5 5 0 0 1 270 5038.5 L 787 5038.5  A 3 3 0 0 1 790 5035.5 A 3 3 0 0 1 793 5038.5 L 836 5038.5  A 5 5 0 0 0 841.5 5033 L 841.5 4488  A 3 3 0 0 0 844.5 4485 A 3 3 0 0 0 841.5 4482 L 841.5 1830  A 5 5 0 0 1 846.5 1825.5 L 1014 1825.5  " stroke-width="1" stroke-dasharray="17,8" stroke="#f59a23" fill="none" />
  <path d="M 1008.94644660941 1820.85355339059  L 1013.59289321881 1825.5  L 1008.94644660941 1830.14644660941  L 1009.65355339059 1830.85355339059  L 1014.65355339059 1825.85355339059  L 1015.00710678119 1825.5  L 1014.65355339059 1825.14644660941  L 1009.65355339059 1820.14644660941  L 1008.94644660941 1820.85355339059  Z " fill-rule="nonzero" fill="#f59a23" stroke="none" />
</svg>