<?xml version="1.0" encoding="utf-8"?>
<svg version="1.1" xmlns:xlink="http://www.w3.org/1999/xlink" width="12px" height="12px" viewBox="1024 1999.5  12 12" xmlns="http://www.w3.org/2000/svg">
  <path d="M 1030 1999.5  C 1033.36 1999.5  1036 2002.14  1036 2005.5  C 1036 2008.86  1033.36 2011.5  1030 2011.5  C 1026.64 2011.5  1024 2008.86  1024 2005.5  C 1024 2002.14  1026.64 1999.5  1030 1999.5  Z " fill-rule="nonzero" fill="#f0f0f0" stroke="none" />
  <path d="M 1030 2000  C 1033.08 2000  1035.5 2002.42  1035.5 2005.5  C 1035.5 2008.58  1033.08 2011  1030 2011  C 1026.92 2011  1024.5 2008.58  1024.5 2005.5  C 1024.5 2002.42  1026.92 2000  1030 2000  Z " stroke-width="1" stroke="#797979" fill="none" />
  <path d="M 1030 2008.5  C 1028.32 2008.5  1027 2007.18  1027 2005.5  C 1027 2003.82  1028.32 2002.5  1030 2002.5  C 1031.68 2002.5  1033 2003.82  1033 2005.5  C 1033 2007.18  1031.68 2008.5  1030 2008.5  " fill-rule="nonzero" fill="#797979" stroke="none" />
</svg>