<?xml version="1.0" encoding="utf-8"?>
<svg version="1.1" xmlns:xlink="http://www.w3.org/1999/xlink" width="12px" height="12px" viewBox="2079 1967.5  12 12" xmlns="http://www.w3.org/2000/svg">
  <path d="M 2085 1967.5  C 2088.36 1967.5  2091 1970.14  2091 1973.5  C 2091 1976.86  2088.36 1979.5  2085 1979.5  C 2081.64 1979.5  2079 1976.86  2079 1973.5  C 2079 1970.14  2081.64 1967.5  2085 1967.5  Z " fill-rule="nonzero" fill="#f0f0f0" stroke="none" />
  <path d="M 2085 1968  C 2088.08 1968  2090.5 1970.42  2090.5 1973.5  C 2090.5 1976.58  2088.08 1979  2085 1979  C 2081.92 1979  2079.5 1976.58  2079.5 1973.5  C 2079.5 1970.42  2081.92 1968  2085 1968  Z " stroke-width="1" stroke="#797979" fill="none" />
  <path d="M 2085 1976.5  C 2083.32 1976.5  2082 1975.18  2082 1973.5  C 2082 1971.82  2083.32 1970.5  2085 1970.5  C 2086.68 1970.5  2088 1971.82  2088 1973.5  C 2088 1975.18  2086.68 1976.5  2085 1976.5  " fill-rule="nonzero" fill="#797979" stroke="none" />
</svg>