<?xml version="1.0" encoding="utf-8"?>
<svg version="1.1" xmlns:xlink="http://www.w3.org/1999/xlink" width="12px" height="12px" viewBox="3049 1967.5  12 12" xmlns="http://www.w3.org/2000/svg">
  <path d="M 3055 1967.5  C 3058.36 1967.5  3061 1970.14  3061 1973.5  C 3061 1976.86  3058.36 1979.5  3055 1979.5  C 3051.64 1979.5  3049 1976.86  3049 1973.5  C 3049 1970.14  3051.64 1967.5  3055 1967.5  Z " fill-rule="nonzero" fill="#f0f0f0" stroke="none" />
  <path d="M 3055 1968  C 3058.08 1968  3060.5 1970.42  3060.5 1973.5  C 3060.5 1976.58  3058.08 1979  3055 1979  C 3051.92 1979  3049.5 1976.58  3049.5 1973.5  C 3049.5 1970.42  3051.92 1968  3055 1968  Z " stroke-width="1" stroke="#797979" fill="none" />
  <path d="M 3055 1976.5  C 3053.32 1976.5  3052 1975.18  3052 1973.5  C 3052 1971.82  3053.32 1970.5  3055 1970.5  C 3056.68 1970.5  3058 1971.82  3058 1973.5  C 3058 1975.18  3056.68 1976.5  3055 1976.5  " fill-rule="nonzero" fill="#797979" stroke="none" />
</svg>