<?xml version="1.0" encoding="utf-8"?>
<svg version="1.1" xmlns:xlink="http://www.w3.org/1999/xlink" width="12px" height="12px" viewBox="3049 1999.5  12 12" xmlns="http://www.w3.org/2000/svg">
  <path d="M 3055 1999.5  C 3058.36 1999.5  3061 2002.14  3061 2005.5  C 3061 2008.86  3058.36 2011.5  3055 2011.5  C 3051.64 2011.5  3049 2008.86  3049 2005.5  C 3049 2002.14  3051.64 1999.5  3055 1999.5  Z " fill-rule="nonzero" fill="#f0f0f0" stroke="none" />
  <path d="M 3055 2000  C 3058.08 2000  3060.5 2002.42  3060.5 2005.5  C 3060.5 2008.58  3058.08 2011  3055 2011  C 3051.92 2011  3049.5 2008.58  3049.5 2005.5  C 3049.5 2002.42  3051.92 2000  3055 2000  Z " stroke-width="1" stroke="#797979" fill="none" />
  <path d="M 3055 2008.5  C 3053.32 2008.5  3052 2007.18  3052 2005.5  C 3052 2003.82  3053.32 2002.5  3055 2002.5  C 3056.68 2002.5  3058 2003.82  3058 2005.5  C 3058 2007.18  3056.68 2008.5  3055 2008.5  " fill-rule="nonzero" fill="#797979" stroke="none" />
</svg>