<?xml version="1.0" encoding="utf-8"?>
<svg version="1.1" xmlns:xlink="http://www.w3.org/1999/xlink" width="12px" height="12px" viewBox="4124 1967.5  12 12" xmlns="http://www.w3.org/2000/svg">
  <path d="M 4130 1967.5  C 4133.36 1967.5  4136 1970.14  4136 1973.5  C 4136 1976.86  4133.36 1979.5  4130 1979.5  C 4126.64 1979.5  4124 1976.86  4124 1973.5  C 4124 1970.14  4126.64 1967.5  4130 1967.5  Z " fill-rule="nonzero" fill="#ffffff" stroke="none" />
  <path d="M 4130 1968  C 4133.08 1968  4135.5 1970.42  4135.5 1973.5  C 4135.5 1976.58  4133.08 1979  4130 1979  C 4126.92 1979  4124.5 1976.58  4124.5 1973.5  C 4124.5 1970.42  4126.92 1968  4130 1968  Z " stroke-width="1" stroke="#797979" fill="none" />
  <path d="M 4130 1976.5  C 4128.32 1976.5  4127 1975.18  4127 1973.5  C 4127 1971.82  4128.32 1970.5  4130 1970.5  C 4131.68 1970.5  4133 1971.82  4133 1973.5  C 4133 1975.18  4131.68 1976.5  4130 1976.5  " fill-rule="nonzero" fill="#797979" stroke="none" />
</svg>