<?xml version="1.0" encoding="utf-8"?>
<svg version="1.1" xmlns:xlink="http://www.w3.org/1999/xlink" width="12px" height="12px" viewBox="4124 2007  12 12" xmlns="http://www.w3.org/2000/svg">
  <path d="M 4130 2007  C 4133.36 2007  4136 2009.64  4136 2013  C 4136 2016.36  4133.36 2019  4130 2019  C 4126.64 2019  4124 2016.36  4124 2013  C 4124 2009.64  4126.64 2007  4130 2007  Z " fill-rule="nonzero" fill="#f0f0f0" stroke="none" />
  <path d="M 4130 2007.5  C 4133.08 2007.5  4135.5 2009.92  4135.5 2013  C 4135.5 2016.08  4133.08 2018.5  4130 2018.5  C 4126.92 2018.5  4124.5 2016.08  4124.5 2013  C 4124.5 2009.92  4126.92 2007.5  4130 2007.5  Z " stroke-width="1" stroke="#797979" fill="none" />
  <path d="M 4130 2016  C 4128.32 2016  4127 2014.68  4127 2013  C 4127 2011.32  4128.32 2010  4130 2010  C 4131.68 2010  4133 2011.32  4133 2013  C 4133 2014.68  4131.68 2016  4130 2016  " fill-rule="nonzero" fill="#797979" stroke="none" />
</svg>