<?xml version="1.0" encoding="utf-8"?>
<svg version="1.1" xmlns:xlink="http://www.w3.org/1999/xlink" width="12px" height="12px" viewBox="4124 2044.5  12 12" xmlns="http://www.w3.org/2000/svg">
  <path d="M 4130 2044.5  C 4133.36 2044.5  4136 2047.14  4136 2050.5  C 4136 2053.86  4133.36 2056.5  4130 2056.5  C 4126.64 2056.5  4124 2053.86  4124 2050.5  C 4124 2047.14  4126.64 2044.5  4130 2044.5  Z " fill-rule="nonzero" fill="#ffffff" stroke="none" />
  <path d="M 4130 2045  C 4133.08 2045  4135.5 2047.42  4135.5 2050.5  C 4135.5 2053.58  4133.08 2056  4130 2056  C 4126.92 2056  4124.5 2053.58  4124.5 2050.5  C 4124.5 2047.42  4126.92 2045  4130 2045  Z " stroke-width="1" stroke="#797979" fill="none" />
  <path d="M 4130 2053.5  C 4128.32 2053.5  4127 2052.18  4127 2050.5  C 4127 2048.82  4128.32 2047.5  4130 2047.5  C 4131.68 2047.5  4133 2048.82  4133 2050.5  C 4133 2052.18  4131.68 2053.5  4130 2053.5  " fill-rule="nonzero" fill="#797979" stroke="none" />
</svg>