<?xml version="1.0" encoding="utf-8"?>
<svg version="1.1" xmlns:xlink="http://www.w3.org/1999/xlink" width="12px" height="12px" viewBox="5036 1999.5  12 12" xmlns="http://www.w3.org/2000/svg">
  <path d="M 5042 1999.5  C 5045.36 1999.5  5048 2002.14  5048 2005.5  C 5048 2008.86  5045.36 2011.5  5042 2011.5  C 5038.64 2011.5  5036 2008.86  5036 2005.5  C 5036 2002.14  5038.64 1999.5  5042 1999.5  Z " fill-rule="nonzero" fill="#ffffff" stroke="none" />
  <path d="M 5042 2000  C 5045.08 2000  5047.5 2002.42  5047.5 2005.5  C 5047.5 2008.58  5045.08 2011  5042 2011  C 5038.92 2011  5036.5 2008.58  5036.5 2005.5  C 5036.5 2002.42  5038.92 2000  5042 2000  Z " stroke-width="1" stroke="#797979" fill="none" />
  <path d="M 5042 2008.5  C 5040.32 2008.5  5039 2007.18  5039 2005.5  C 5039 2003.82  5040.32 2002.5  5042 2002.5  C 5043.68 2002.5  5045 2003.82  5045 2005.5  C 5045 2007.18  5043.68 2008.5  5042 2008.5  " fill-rule="nonzero" fill="#797979" stroke="none" />
</svg>