<?xml version="1.0" encoding="utf-8"?>
<svg version="1.1" xmlns:xlink="http://www.w3.org/1999/xlink" width="12px" height="12px" viewBox="6111 1967.5  12 12" xmlns="http://www.w3.org/2000/svg">
  <path d="M 6117 1967.5  C 6120.36 1967.5  6123 1970.14  6123 1973.5  C 6123 1976.86  6120.36 1979.5  6117 1979.5  C 6113.64 1979.5  6111 1976.86  6111 1973.5  C 6111 1970.14  6113.64 1967.5  6117 1967.5  Z " fill-rule="nonzero" fill="#f0f0f0" stroke="none" />
  <path d="M 6117 1968  C 6120.08 1968  6122.5 1970.42  6122.5 1973.5  C 6122.5 1976.58  6120.08 1979  6117 1979  C 6113.92 1979  6111.5 1976.58  6111.5 1973.5  C 6111.5 1970.42  6113.92 1968  6117 1968  Z " stroke-width="1" stroke="#797979" fill="none" />
  <path d="M 6117 1976.5  C 6115.32 1976.5  6114 1975.18  6114 1973.5  C 6114 1971.82  6115.32 1970.5  6117 1970.5  C 6118.68 1970.5  6120 1971.82  6120 1973.5  C 6120 1975.18  6118.68 1976.5  6117 1976.5  " fill-rule="nonzero" fill="#797979" stroke="none" />
</svg>