<?xml version="1.0" encoding="utf-8"?>
<svg version="1.1" xmlns:xlink="http://www.w3.org/1999/xlink" width="10px" height="962px" preserveAspectRatio="xMidYMin meet" viewBox="3054 174  8 962" xmlns="http://www.w3.org/2000/svg">
  <path d="M 2556 1131.5  L 3053 1131.5  A 5 5 0 0 0 3058.5 1126.5 L 3058.5 184  A 5 5 0 0 1 3063.5 179.5 L 4177 179.5  A 5 5 0 0 1 4182.5 184.5 L 4182.5 230  A 5 5 0 0 0 4187.5 235.5 L 4191 235.5  " stroke-width="1" stroke-dasharray="17,8" stroke="#f59a23" fill="none" />
  <path d="M 4185.94644660941 230.853553390593  L 4190.59289321881 235.5  L 4185.94644660941 240.146446609407  L 4186.65355339059 240.853553390593  L 4191.65355339059 235.853553390593  L 4192.00710678119 235.5  L 4191.65355339059 235.146446609407  L 4186.65355339059 230.146446609407  L 4185.94644660941 230.853553390593  Z " fill-rule="nonzero" fill="#f59a23" stroke="none" />
</svg>