<?xml version="1.0" encoding="utf-8"?>
<svg version="1.1" xmlns:xlink="http://www.w3.org/1999/xlink" width="117px" height="117px" xmlns="http://www.w3.org/2000/svg">
  <g transform="matrix(1 0 0 1 -5483 -398 )">
    <path d="M 96.43359375 49.587890625  C 97.34765625 48.673828125  97.8046875 47.53125  97.8046875 46.16015625  C 97.8046875 44.73828125  97.34765625 43.5703125  96.43359375 42.65625  L 89.501953125 35.80078125  C 88.537109375 34.8359375  87.39453125 34.353515625  86.07421875 34.353515625  C 84.75390625 34.353515625  83.611328125 34.8359375  82.646484375 35.80078125  L 51.568359375 66.802734375  L 34.353515625 49.587890625  C 33.388671875 48.623046875  32.24609375 48.140625  30.92578125 48.140625  C 29.60546875 48.140625  28.462890625 48.623046875  27.498046875 49.587890625  L 20.56640625 56.443359375  C 19.65234375 57.357421875  19.1953125 58.525390625  19.1953125 59.947265625  C 19.1953125 61.318359375  19.65234375 62.4609375  20.56640625 63.375  L 48.140625 90.94921875  C 49.10546875 91.9140625  50.248046875 92.396484375  51.568359375 92.396484375  C 52.939453125 92.396484375  54.107421875 91.9140625  55.072265625 90.94921875  L 96.43359375 49.587890625  Z M 109.154296875 29.1357421875  C 114.384765625 38.0986328125  117 47.88671875  117 58.5  C 117 69.11328125  114.384765625 78.9013671875  109.154296875 87.8642578125  C 103.923828125 96.8271484375  96.8271484375 103.923828125  87.8642578125 109.154296875  C 78.9013671875 114.384765625  69.11328125 117  58.5 117  C 47.88671875 117  38.0986328125 114.384765625  29.1357421875 109.154296875  C 20.1728515625 103.923828125  13.076171875 96.8271484375  7.845703125 87.8642578125  C 2.615234375 78.9013671875  0 69.11328125  0 58.5  C 0 47.88671875  2.615234375 38.0986328125  7.845703125 29.1357421875  C 13.076171875 20.1728515625  20.1728515625 13.076171875  29.1357421875 7.845703125  C 38.0986328125 2.61523437499999  47.88671875 0  58.5 0  C 69.11328125 0  78.9013671875 2.61523437499999  87.8642578125 7.845703125  C 96.8271484375 13.076171875  103.923828125 20.1728515625  109.154296875 29.1357421875  Z " fill-rule="nonzero" fill="#70b603" stroke="none" transform="matrix(1 0 0 1 5483 398 )" />
  </g>
</svg>