<?xml version="1.0" encoding="utf-8"?>
<svg version="1.1" xmlns:xlink="http://www.w3.org/1999/xlink" width="12px" height="12px" viewBox="3516 1040.5  12 12" xmlns="http://www.w3.org/2000/svg">
  <path d="M 3522 1040.5  C 3525.36 1040.5  3528 1043.14  3528 1046.5  C 3528 1049.86  3525.36 1052.5  3522 1052.5  C 3518.64 1052.5  3516 1049.86  3516 1046.5  C 3516 1043.14  3518.64 1040.5  3522 1040.5  Z " fill-rule="nonzero" fill="#f0f0f0" stroke="none" />
  <path d="M 3522 1041  C 3525.08 1041  3527.5 1043.42  3527.5 1046.5  C 3527.5 1049.58  3525.08 1052  3522 1052  C 3518.92 1052  3516.5 1049.58  3516.5 1046.5  C 3516.5 1043.42  3518.92 1041  3522 1041  Z " stroke-width="1" stroke="#797979" fill="none" />
  <path d="M 3522 1049.5  C 3520.32 1049.5  3519 1048.18  3519 1046.5  C 3519 1044.82  3520.32 1043.5  3522 1043.5  C 3523.68 1043.5  3525 1044.82  3525 1046.5  C 3525 1048.18  3523.68 1049.5  3522 1049.5  " fill-rule="nonzero" fill="#797979" stroke="none" />
</svg>