<?xml version="1.0" encoding="utf-8"?>
<svg version="1.1" xmlns:xlink="http://www.w3.org/1999/xlink" width="12px" height="12px" viewBox="3516 1075.5  12 12" xmlns="http://www.w3.org/2000/svg">
  <path d="M 3522 1075.5  C 3525.36 1075.5  3528 1078.14  3528 1081.5  C 3528 1084.86  3525.36 1087.5  3522 1087.5  C 3518.64 1087.5  3516 1084.86  3516 1081.5  C 3516 1078.14  3518.64 1075.5  3522 1075.5  Z " fill-rule="nonzero" fill="#ffffff" stroke="none" />
  <path d="M 3522 1076  C 3525.08 1076  3527.5 1078.42  3527.5 1081.5  C 3527.5 1084.58  3525.08 1087  3522 1087  C 3518.92 1087  3516.5 1084.58  3516.5 1081.5  C 3516.5 1078.42  3518.92 1076  3522 1076  Z " stroke-width="1" stroke="#797979" fill="none" />
  <path d="M 3522 1084.5  C 3520.32 1084.5  3519 1083.18  3519 1081.5  C 3519 1079.82  3520.32 1078.5  3522 1078.5  C 3523.68 1078.5  3525 1079.82  3525 1081.5  C 3525 1083.18  3523.68 1084.5  3522 1084.5  " fill-rule="nonzero" fill="#797979" stroke="none" />
</svg>