<?xml version="1.0" encoding="utf-8"?>
<svg version="1.1" xmlns:xlink="http://www.w3.org/1999/xlink" width="12px" height="12px" viewBox="3208 2752.5  12 12" xmlns="http://www.w3.org/2000/svg">
  <path d="M 3214 2752.5  C 3217.36 2752.5  3220 2755.14  3220 2758.5  C 3220 2761.86  3217.36 2764.5  3214 2764.5  C 3210.64 2764.5  3208 2761.86  3208 2758.5  C 3208 2755.14  3210.64 2752.5  3214 2752.5  Z " fill-rule="nonzero" fill="#ffffff" stroke="none" />
  <path d="M 3214 2753  C 3217.08 2753  3219.5 2755.42  3219.5 2758.5  C 3219.5 2761.58  3217.08 2764  3214 2764  C 3210.92 2764  3208.5 2761.58  3208.5 2758.5  C 3208.5 2755.42  3210.92 2753  3214 2753  Z " stroke-width="1" stroke="#797979" fill="none" />
  <path d="M 3214 2761.5  C 3212.32 2761.5  3211 2760.18  3211 2758.5  C 3211 2756.82  3212.32 2755.5  3214 2755.5  C 3215.68 2755.5  3217 2756.82  3217 2758.5  C 3217 2760.18  3215.68 2761.5  3214 2761.5  " fill-rule="nonzero" fill="#797979" stroke="none" />
</svg>