<?xml version="1.0" encoding="utf-8"?>
<svg version="1.1" xmlns:xlink="http://www.w3.org/1999/xlink" width="13px" height="15px" xmlns="http://www.w3.org/2000/svg">
  <g transform="matrix(1 0 0 1 -886 -639 )">
    <path d="M 12.691270860077 7.01086956521738  C 12.8970902866923 7.27581521739131  13 7.58491847826087  13 7.93817934782607  C 13 8.28464673913049  12.8970902866923 8.59035326086951  12.691270860077 8.8552989130435  L 12.0654685494223 9.61956521739131  C 11.8540864356012 9.87771739130432  11.6009841677364 10.0067934782609  11.306161745828 10.0067934782609  C 11.0057766367137 10.0067934782609  10.7554557124519 9.87771739130432  10.5551989730424 9.61956521739131  L 8.10205391527603 6.63383152173913  L 8.10205391527603 13.8077445652174  C 8.10205391527603 14.1610054347826  7.9977535301669 14.4480298913043  7.78915275994865 14.6688179347826  C 7.5805519897304 14.8896059782609  7.32884039366706 15  7.03401797175866 15  L 5.96598202824134 15  C 5.67115960633294 15  5.4194480102696 14.8896059782609  5.21084724005135 14.6688179347826  C 5.0022464698331 14.4480298913043  4.89794608472397 14.1610054347826  4.89794608472397 13.8077445652174  L 4.89794608472397 6.63383152173913  L 2.44480102695763 9.61956521739131  C 2.24454428754814 9.87771739130432  1.99422336328627 10.0067934782609  1.69383825417202 10.0067934782609  C 1.39345314505778 10.0067934782609  1.14313222079591 9.87771739130432  0.942875481386409 9.61956521739131  L 0.317073170731703 8.8552989130435  C 0.105691056910587 8.59714673913044  0 8.29144021739131  0 7.93817934782607  C 0 7.578125  0.105691056910587 7.26902173913044  0.317073170731703 7.01086956521738  L 5.74903722721439 0.377038043478251  C 5.94373127941805 0.125679347826122  6.19405220367992 0  6.5 0  C 6.80038510911425 0  7.05348737697904 0.125679347826122  7.25930680359431 0.377038043478251  L 12.691270860077 7.01086956521738  Z " fill-rule="nonzero" fill="#ac543f" stroke="none" transform="matrix(1 0 0 1 886 639 )" />
  </g>
</svg>