<?xml version="1.0" encoding="utf-8"?>
<svg version="1.1" xmlns:xlink="http://www.w3.org/1999/xlink" width="10px" height="232px" preserveAspectRatio="xMidYMin meet" viewBox="1286 2835  8 232" xmlns="http://www.w3.org/2000/svg">
  <path d="M 1206.5 2860  L 1206.5 2845  A 5 5 0 0 1 1211.5 2840.5 L 1285 2840.5  A 5 5 0 0 1 1290.5 2845 L 1290.5 2981  A 3 3 0 0 1 1293.5 2984 A 3 3 0 0 1 1290.5 2987 L 1290.5 3057  A 5 5 0 0 0 1295.5 3062.5 L 1388 3062.5  " stroke-width="1" stroke-dasharray="17,8" stroke="#0099cc" fill="none" />
  <path d="M 1382.94644660941 3057.85355339059  L 1387.59289321881 3062.5  L 1382.94644660941 3067.14644660941  L 1383.65355339059 3067.85355339059  L 1388.65355339059 3062.85355339059  L 1389.00710678119 3062.5  L 1388.65355339059 3062.14644660941  L 1383.65355339059 3057.14644660941  L 1382.94644660941 3057.85355339059  Z " fill-rule="nonzero" fill="#0099cc" stroke="none" />
</svg>