<?xml version="1.0" encoding="utf-8"?>
<svg version="1.1" xmlns:xlink="http://www.w3.org/1999/xlink" width="134px" height="10px" preserveAspectRatio="xMinYMid meet" viewBox="1295 1163  134 8" xmlns="http://www.w3.org/2000/svg">
  <path d="M 1188 893.5  L 1295 893.5  A 5 5 0 0 1 1300.5 898 L 1300.5 976  A 3 3 0 0 1 1303.5 979 A 3 3 0 0 1 1300.5 982 L 1300.5 1032  A 3 3 0 0 1 1303.5 1035 A 3 3 0 0 1 1300.5 1038 L 1300.5 1162  A 5 5 0 0 0 1305.5 1167.5 L 1428 1167.5  " stroke-width="1" stroke-dasharray="17,8" stroke="#f59a23" fill="none" />
  <path d="M 1422.94644660941 1162.85355339059  L 1427.59289321881 1167.5  L 1422.94644660941 1172.14644660941  L 1423.65355339059 1172.85355339059  L 1428.65355339059 1167.85355339059  L 1429.00710678119 1167.5  L 1428.65355339059 1167.14644660941  L 1423.65355339059 1162.14644660941  L 1422.94644660941 1162.85355339059  Z " fill-rule="nonzero" fill="#f59a23" stroke="none" />
</svg>