<?xml version="1.0" encoding="utf-8"?>
<svg version="1.1" xmlns:xlink="http://www.w3.org/1999/xlink" width="18px" height="18px" preserveAspectRatio="xMinYMid meet" viewBox="140 246  18 16" xmlns="http://www.w3.org/2000/svg">
  <path d="M 1849 306.5  L 1587 306.5  A 5 5 0 0 1 1582.5 301 L 1582.5 257  A 3 3 0 0 0 1585.5 254 A 3 3 0 0 0 1582.5 251 L 1582.5 206  A 5 5 0 0 0 1577 201.5 L 1101 201.5  A 3 3 0 0 0 1098 198.5 A 3 3 0 0 0 1095 201.5 L 163 201.5  A 5 5 0 0 0 158.5 206.5 L 158.5 249  A 5 5 0 0 1 153.5 254.5 L 149 254.5  " stroke-width="1" stroke-dasharray="17,8" stroke="#f59a23" fill="none" />
  <path d="M 154.053553390593 259.146446609407  L 149.407106781187 254.5  L 154.053553390593 249.853553390593  L 153.346446609407 249.146446609407  L 148.346446609407 254.146446609407  L 147.992893218813 254.5  L 148.346446609407 254.853553390593  L 153.346446609407 259.853553390593  L 154.053553390593 259.146446609407  Z " fill-rule="nonzero" fill="#f59a23" stroke="none" />
</svg>