<?xml version="1.0" encoding="utf-8"?>
<svg version="1.1" xmlns:xlink="http://www.w3.org/1999/xlink" width="6px" height="25px" xmlns="http://www.w3.org/2000/svg">
  <defs>
    <mask fill="white" id="clip1063">
      <path d="M 0 12.2328851757732  C 0 7.72220123192443  1.21307759730342 3.52150305035489  3.30177249020806 0  C 3.30177249020806 0  5.71890111482123 1.7126206029511  5.71890111482123 1.7126206029511  C 3.92262956906902 4.74110981131517  2.87938666558937 8.35370410514249  2.87938666558937 12.2328851757732  C 2.87938666558937 16.3102027864241  4.03192245789367 20.0930052836761  6 23.2125934245673  C 6 23.2125934245673  3.62862785889935 25  3.62862785889935 25  C 1.34016090520387 21.3725695898604  0 16.973957484131  0 12.2328851757732  Z " fill-rule="evenodd" />
    </mask>
  </defs>
  <g transform="matrix(1 0 0 1 -755 -302 )">
    <path d="M 0 12.2328851757732  C 0 7.72220123192443  1.21307759730342 3.52150305035489  3.30177249020806 0  C 3.30177249020806 0  5.71890111482123 1.7126206029511  5.71890111482123 1.7126206029511  C 3.92262956906902 4.74110981131517  2.87938666558937 8.35370410514249  2.87938666558937 12.2328851757732  C 2.87938666558937 16.3102027864241  4.03192245789367 20.0930052836761  6 23.2125934245673  C 6 23.2125934245673  3.62862785889935 25  3.62862785889935 25  C 1.34016090520387 21.3725695898604  0 16.973957484131  0 12.2328851757732  Z " fill-rule="nonzero" fill="#f4664a" stroke="none" transform="matrix(1 0 0 1 755 302 )" />
    <path d="M 0 12.2328851757732  C 0 7.72220123192443  1.21307759730342 3.52150305035489  3.30177249020806 0  C 3.30177249020806 0  5.71890111482123 1.7126206029511  5.71890111482123 1.7126206029511  C 3.92262956906902 4.74110981131517  2.87938666558937 8.35370410514249  2.87938666558937 12.2328851757732  C 2.87938666558937 16.3102027864241  4.03192245789367 20.0930052836761  6 23.2125934245673  C 6 23.2125934245673  3.62862785889935 25  3.62862785889935 25  C 1.34016090520387 21.3725695898604  0 16.973957484131  0 12.2328851757732  Z " stroke-width="2" stroke="#ffffff" fill="none" transform="matrix(1 0 0 1 755 302 )" mask="url(#clip1063)" />
  </g>
</svg>