<?xml version="1.0" encoding="utf-8"?>
<svg version="1.1" xmlns:xlink="http://www.w3.org/1999/xlink" width="44px" height="35px" xmlns="http://www.w3.org/2000/svg">
  <defs>
    <mask fill="white" id="clip1060">
      <path d="M 0 22.3292114022354  C 0 9.99712846972054  9.8497355044 0  22 0  C 34.1502644956 0  44 9.99712846972054  44 22.3292114022354  C 44 27.034624551985  42.5660063809053 31.4000986445866  40.1173774797481 35  C 40.1173774797481 35  37.5809549673698 33.2260744024019  37.5809549673698 33.2260744024019  C 39.686769522494 30.1301621472456  40.92 26.3758600910605  40.92 22.3292114022354  C 40.92 11.7236200802726  32.449227466216 3.12608959631296  22 3.12608959631296  C 11.550772533784 3.12608959631296  3.08 11.7236200802726  3.08 22.3292114022354  C 3.08 26.3752120915908  4.3128355488757 30.1289597691314  6.4180334724921 33.2245870843985  C 6.4180334724921 33.2245870843985  3.88144250960556 34.9982650086955  3.88144250960556 34.9982650086955  C 1.43353292468729 31.3986960416682  0 27.0338686449752  0 22.3292114022354  Z " fill-rule="evenodd" />
    </mask>
  </defs>
  <g transform="matrix(1 0 0 1 -755 -292 )">
    <path d="M 0 22.3292114022354  C 0 9.99712846972054  9.8497355044 0  22 0  C 34.1502644956 0  44 9.99712846972054  44 22.3292114022354  C 44 27.034624551985  42.5660063809053 31.4000986445866  40.1173774797481 35  C 40.1173774797481 35  37.5809549673698 33.2260744024019  37.5809549673698 33.2260744024019  C 39.686769522494 30.1301621472456  40.92 26.3758600910605  40.92 22.3292114022354  C 40.92 11.7236200802726  32.449227466216 3.12608959631296  22 3.12608959631296  C 11.550772533784 3.12608959631296  3.08 11.7236200802726  3.08 22.3292114022354  C 3.08 26.3752120915908  4.3128355488757 30.1289597691314  6.4180334724921 33.2245870843985  C 6.4180334724921 33.2245870843985  3.88144250960556 34.9982650086955  3.88144250960556 34.9982650086955  C 1.43353292468729 31.3986960416682  0 27.0338686449752  0 22.3292114022354  Z " fill-rule="nonzero" fill="#30bf78" stroke="none" transform="matrix(1 0 0 1 755 292 )" />
    <path d="M 0 22.3292114022354  C 0 9.99712846972054  9.8497355044 0  22 0  C 34.1502644956 0  44 9.99712846972054  44 22.3292114022354  C 44 27.034624551985  42.5660063809053 31.4000986445866  40.1173774797481 35  C 40.1173774797481 35  37.5809549673698 33.2260744024019  37.5809549673698 33.2260744024019  C 39.686769522494 30.1301621472456  40.92 26.3758600910605  40.92 22.3292114022354  C 40.92 11.7236200802726  32.449227466216 3.12608959631296  22 3.12608959631296  C 11.550772533784 3.12608959631296  3.08 11.7236200802726  3.08 22.3292114022354  C 3.08 26.3752120915908  4.3128355488757 30.1289597691314  6.4180334724921 33.2245870843985  C 6.4180334724921 33.2245870843985  3.88144250960556 34.9982650086955  3.88144250960556 34.9982650086955  C 1.43353292468729 31.3986960416682  0 27.0338686449752  0 22.3292114022354  Z " stroke-width="2" stroke="#ffffff" fill="none" transform="matrix(1 0 0 1 755 292 )" mask="url(#clip1060)" />
  </g>
</svg>