<?xml version="1.0" encoding="utf-8"?>
<svg version="1.1" xmlns:xlink="http://www.w3.org/1999/xlink" width="22px" height="35px" xmlns="http://www.w3.org/2000/svg">
  <defs>
    <mask fill="white" id="clip1062">
      <path d="M 21.6364301778156 0.0029916246652744  C 21.6364301778156 0.0029916246652744  22 0  22 0  L 22 3.126140779142  C 22 3.126140779142  21.6873641755239 3.1288173651577  21.6873641755239 3.1288173651577  C 11.382330630702 3.29840451788044  3.08003422260247 11.8302624335623  3.08003422260247 22.3303183424683  C 3.08003422260247 26.3765196067953  4.31288346980314 30.1304533712628  6.41810478476748 33.2262341480364  C 6.41810478476748 33.2262341480364  3.88148563722375 35  3.88148563722375 35  C 1.43354885300788 31.4002525892453  0 27.035208812181  0 22.3303183424683  C 0 10.1209510065311  9.65383303267391 0.200185988296375  21.6364301778156 0.0029916246652744  Z " fill-rule="evenodd" />
    </mask>
  </defs>
  <g transform="matrix(1 0 0 1 -755 -292 )">
    <path d="M 21.6364301778156 0.0029916246652744  C 21.6364301778156 0.0029916246652744  22 0  22 0  L 22 3.126140779142  C 22 3.126140779142  21.6873641755239 3.1288173651577  21.6873641755239 3.1288173651577  C 11.382330630702 3.29840451788044  3.08003422260247 11.8302624335623  3.08003422260247 22.3303183424683  C 3.08003422260247 26.3765196067953  4.31288346980314 30.1304533712628  6.41810478476748 33.2262341480364  C 6.41810478476748 33.2262341480364  3.88148563722375 35  3.88148563722375 35  C 1.43354885300788 31.4002525892453  0 27.035208812181  0 22.3303183424683  C 0 10.1209510065311  9.65383303267391 0.200185988296375  21.6364301778156 0.0029916246652744  Z " fill-rule="nonzero" fill="#faad14" stroke="none" transform="matrix(1 0 0 1 755 292 )" />
    <path d="M 21.6364301778156 0.0029916246652744  C 21.6364301778156 0.0029916246652744  22 0  22 0  L 22 3.126140779142  C 22 3.126140779142  21.6873641755239 3.1288173651577  21.6873641755239 3.1288173651577  C 11.382330630702 3.29840451788044  3.08003422260247 11.8302624335623  3.08003422260247 22.3303183424683  C 3.08003422260247 26.3765196067953  4.31288346980314 30.1304533712628  6.41810478476748 33.2262341480364  C 6.41810478476748 33.2262341480364  3.88148563722375 35  3.88148563722375 35  C 1.43354885300788 31.4002525892453  0 27.035208812181  0 22.3303183424683  C 0 10.1209510065311  9.65383303267391 0.200185988296375  21.6364301778156 0.0029916246652744  Z " stroke-width="2" stroke="#ffffff" fill="none" transform="matrix(1 0 0 1 755 292 )" mask="url(#clip1062)" />
  </g>
</svg>