<?xml version="1.0" encoding="utf-8"?>
<svg version="1.1" xmlns:xlink="http://www.w3.org/1999/xlink" width="41px" height="35px" xmlns="http://www.w3.org/2000/svg">
  <defs>
    <mask fill="white" id="clip1061">
      <path d="M 0 22.3303183424683  C 0 9.99762406374385  9.87641651144098 0  22.0595936971749 0  C 30.1063596121577 0  37.146833218211 4.36132465540544  41 10.8761931201343  C 41 10.8761931201343  38.3483566323539 12.4797935018041  38.3483566323539 12.4797935018041  C 35.0346361479731 6.8769939696676  28.9798217919189 3.12624456794556  22.0595936971749 3.12624456794556  C 11.5820613174437 3.12624456794556  3.08834311760448 11.7242012627653  3.08834311760448 22.3303183424683  C 3.08834311760448 26.3765196067953  4.32451817686046 30.1304533712628  6.43541866991109 33.2262341480364  C 6.43541866991109 33.2262341480364  3.89195657822006 35  3.89195657822006 35  C 1.43741608500565 31.4002525892453  0 27.035208812181  0 22.3303183424683  Z " fill-rule="evenodd" />
    </mask>
  </defs>
  <g transform="matrix(1 0 0 1 -755 -292 )">
    <path d="M 0 22.3303183424683  C 0 9.99762406374385  9.87641651144098 0  22.0595936971749 0  C 30.1063596121577 0  37.146833218211 4.36132465540544  41 10.8761931201343  C 41 10.8761931201343  38.3483566323539 12.4797935018041  38.3483566323539 12.4797935018041  C 35.0346361479731 6.8769939696676  28.9798217919189 3.12624456794556  22.0595936971749 3.12624456794556  C 11.5820613174437 3.12624456794556  3.08834311760448 11.7242012627653  3.08834311760448 22.3303183424683  C 3.08834311760448 26.3765196067953  4.32451817686046 30.1304533712628  6.43541866991109 33.2262341480364  C 6.43541866991109 33.2262341480364  3.89195657822006 35  3.89195657822006 35  C 1.43741608500565 31.4002525892453  0 27.035208812181  0 22.3303183424683  Z " fill-rule="nonzero" fill="#a0d911" stroke="none" transform="matrix(1 0 0 1 755 292 )" />
    <path d="M 0 22.3303183424683  C 0 9.99762406374385  9.87641651144098 0  22.0595936971749 0  C 30.1063596121577 0  37.146833218211 4.36132465540544  41 10.8761931201343  C 41 10.8761931201343  38.3483566323539 12.4797935018041  38.3483566323539 12.4797935018041  C 35.0346361479731 6.8769939696676  28.9798217919189 3.12624456794556  22.0595936971749 3.12624456794556  C 11.5820613174437 3.12624456794556  3.08834311760448 11.7242012627653  3.08834311760448 22.3303183424683  C 3.08834311760448 26.3765196067953  4.32451817686046 30.1304533712628  6.43541866991109 33.2262341480364  C 6.43541866991109 33.2262341480364  3.89195657822006 35  3.89195657822006 35  C 1.43741608500565 31.4002525892453  0 27.035208812181  0 22.3303183424683  Z " stroke-width="2" stroke="#ffffff" fill="none" transform="matrix(1 0 0 1 755 292 )" mask="url(#clip1061)" />
  </g>
</svg>