<?xml version="1.0" encoding="utf-8"?>
<svg version="1.1" xmlns:xlink="http://www.w3.org/1999/xlink" width="10px" height="1115px" preserveAspectRatio="xMidYMin meet" viewBox="3676 84  8 1115" xmlns="http://www.w3.org/2000/svg">
  <path d="M 874 847.5  L 879 847.5  A 5 5 0 0 1 884.5 852.5 L 884.5 1189  A 5 5 0 0 0 889 1194.5 L 1388 1194.5  A 3 3 0 0 1 1391 1191.5 A 3 3 0 0 1 1394 1194.5 L 3675 1194.5  A 5 5 0 0 0 3680.5 1189.5 L 3680.5 94  A 5 5 0 0 1 3685.5 89.5 L 4499 89.5  " stroke-width="1" stroke-dasharray="17,8" stroke="#f59a23" fill="none" />
  <path d="M 4493.94644660941 84.8535533905933  L 4498.59289321881 89.5  L 4493.94644660941 94.1464466094067  L 4494.65355339059 94.8535533905933  L 4499.65355339059 89.8535533905933  L 4500.00710678119 89.5  L 4499.65355339059 89.1464466094067  L 4494.65355339059 84.1464466094067  L 4493.94644660941 84.8535533905933  Z " fill-rule="nonzero" fill="#f59a23" stroke="none" />
</svg>