<?xml version="1.0" encoding="utf-8"?>
<svg version="1.1" xmlns:xlink="http://www.w3.org/1999/xlink" width="43px" height="43px" xmlns="http://www.w3.org/2000/svg">
  <g transform="matrix(1 0 0 1 -66 -225 )">
    <path d="M 87.5 225  C 99.54 225  109 234.46  109 246.5  C 109 258.54  99.54 268  87.5 268  C 75.46 268  66 258.54  66 246.5  C 66 234.46  75.46 225  87.5 225  Z " fill-rule="nonzero" fill="#ffffff" stroke="none" />
    <path d="M 87.5 225.5  C 99.26 225.5  108.5 234.74  108.5 246.5  C 108.5 258.26  99.26 267.5  87.5 267.5  C 75.74 267.5  66.5 258.26  66.5 246.5  C 66.5 234.74  75.74 225.5  87.5 225.5  Z " stroke-width="1" stroke="#797979" fill="none" />
  </g>
</svg>