<?xml version="1.0" encoding="utf-8"?>
<svg version="1.1" xmlns:xlink="http://www.w3.org/1999/xlink" width="70px" height="59px" xmlns="http://www.w3.org/2000/svg">
  <g transform="matrix(1 0 0 1 -79 -484 )">
    <path d="M 79 484  L 149 484  L 149 543  L 79 543  L 79 484  " fill-rule="nonzero" fill="#cccccc" stroke="none" />
    <path d="M 83 488  L 145 488  L 145 539  L 83 539  L 83 488  " fill-rule="nonzero" fill="#ffffff" stroke="none" />
    <path d="M 119.825 501.7  C 117.347 501.7  115.4 499.753  115.4 497.275  C 115.4 494.797  117.347 492.85  119.825 492.85  C 122.303 492.85  124.25 494.797  124.25 497.275  C 124.25 499.753  122.303 501.7  119.825 501.7  " fill-rule="nonzero" fill="#cccccc" stroke="none" />
    <path d="M 85 538  L 85 511.6  L 99.75 499.6  L 120.4 513.725714285714  L 132.2 506.8  L 144 513.725714285714  L 144 538  L 85 538  " fill-rule="nonzero" fill="#169bd5" stroke="none" />
  </g>
</svg>