<?xml version="1.0" encoding="utf-8"?>
<svg version="1.1" xmlns:xlink="http://www.w3.org/1999/xlink" width="413px" height="28px" viewBox="272 371  413 28" xmlns="http://www.w3.org/2000/svg">
  <path d="M 273 376  A 4 4 0 0 1 277 372 L 680 372  A 4 4 0 0 1 684 376 L 684 394  A 4 4 0 0 1 680 398 L 277 398  A 4 4 0 0 1 273 394 L 273 376  Z " fill-rule="nonzero" fill="#f0f0f0" stroke="none" />
  <path d="M 272.5 376  A 4.5 4.5 0 0 1 277 371.5 L 680 371.5  A 4.5 4.5 0 0 1 684.5 376 L 684.5 394  A 4.5 4.5 0 0 1 680 398.5 L 277 398.5  A 4.5 4.5 0 0 1 272.5 394 L 272.5 376  Z " stroke-width="1" stroke="#bcbcbc" fill="none" stroke-opacity="0.349019607843137" />
</svg>