<?xml version="1.0" encoding="utf-8"?>
<svg version="1.1" xmlns:xlink="http://www.w3.org/1999/xlink" width="12px" height="12px" viewBox="1492 533.5  12 12" xmlns="http://www.w3.org/2000/svg">
  <path d="M 1498 533.5  C 1501.36 533.5  1504 536.14  1504 539.5  C 1504 542.86  1501.36 545.5  1498 545.5  C 1494.64 545.5  1492 542.86  1492 539.5  C 1492 536.14  1494.64 533.5  1498 533.5  Z " fill-rule="nonzero" fill="#f0f0f0" stroke="none" />
  <path d="M 1498 534  C 1501.08 534  1503.5 536.42  1503.5 539.5  C 1503.5 542.58  1501.08 545  1498 545  C 1494.92 545  1492.5 542.58  1492.5 539.5  C 1492.5 536.42  1494.92 534  1498 534  Z " stroke-width="1" stroke="#797979" fill="none" />
  <path d="M 1498 542.5  C 1496.32 542.5  1495 541.18  1495 539.5  C 1495 537.82  1496.32 536.5  1498 536.5  C 1499.68 536.5  1501 537.82  1501 539.5  C 1501 541.18  1499.68 542.5  1498 542.5  " fill-rule="nonzero" fill="#797979" stroke="none" />
</svg>