<?xml version="1.0" encoding="utf-8"?>
<svg version="1.1" xmlns:xlink="http://www.w3.org/1999/xlink" width="12px" height="12px" viewBox="1492 505.5  12 12" xmlns="http://www.w3.org/2000/svg">
  <path d="M 1498 505.5  C 1501.36 505.5  1504 508.14  1504 511.5  C 1504 514.86  1501.36 517.5  1498 517.5  C 1494.64 517.5  1492 514.86  1492 511.5  C 1492 508.14  1494.64 505.5  1498 505.5  Z " fill-rule="nonzero" fill="#f0f0f0" stroke="none" />
  <path d="M 1498 506  C 1501.08 506  1503.5 508.42  1503.5 511.5  C 1503.5 514.58  1501.08 517  1498 517  C 1494.92 517  1492.5 514.58  1492.5 511.5  C 1492.5 508.42  1494.92 506  1498 506  Z " stroke-width="1" stroke="#797979" fill="none" />
  <path d="M 1498 514.5  C 1496.32 514.5  1495 513.18  1495 511.5  C 1495 509.82  1496.32 508.5  1498 508.5  C 1499.68 508.5  1501 509.82  1501 511.5  C 1501 513.18  1499.68 514.5  1498 514.5  " fill-rule="nonzero" fill="#797979" stroke="none" />
</svg>