<?xml version="1.0" encoding="utf-8"?>
<svg version="1.1" xmlns:xlink="http://www.w3.org/1999/xlink" width="12px" height="12px" viewBox="1492 587.5  12 12" xmlns="http://www.w3.org/2000/svg">
  <path d="M 1498 587.5  C 1501.36 587.5  1504 590.14  1504 593.5  C 1504 596.86  1501.36 599.5  1498 599.5  C 1494.64 599.5  1492 596.86  1492 593.5  C 1492 590.14  1494.64 587.5  1498 587.5  Z " fill-rule="nonzero" fill="#ffffff" stroke="none" />
  <path d="M 1498 588  C 1501.08 588  1503.5 590.42  1503.5 593.5  C 1503.5 596.58  1501.08 599  1498 599  C 1494.92 599  1492.5 596.58  1492.5 593.5  C 1492.5 590.42  1494.92 588  1498 588  Z " stroke-width="1" stroke="#797979" fill="none" />
  <path d="M 1498 596.5  C 1496.32 596.5  1495 595.18  1495 593.5  C 1495 591.82  1496.32 590.5  1498 590.5  C 1499.68 590.5  1501 591.82  1501 593.5  C 1501 595.18  1499.68 596.5  1498 596.5  " fill-rule="nonzero" fill="#797979" stroke="none" />
</svg>