<?xml version="1.0" encoding="utf-8"?>
<svg version="1.1" xmlns:xlink="http://www.w3.org/1999/xlink" width="12px" height="12px" viewBox="2220 402.5  12 12" xmlns="http://www.w3.org/2000/svg">
  <path d="M 2226 402.5  C 2229.36 402.5  2232 405.14  2232 408.5  C 2232 411.86  2229.36 414.5  2226 414.5  C 2222.64 414.5  2220 411.86  2220 408.5  C 2220 405.14  2222.64 402.5  2226 402.5  Z " fill-rule="nonzero" fill="#ffffff" stroke="none" />
  <path d="M 2226 403  C 2229.08 403  2231.5 405.42  2231.5 408.5  C 2231.5 411.58  2229.08 414  2226 414  C 2222.92 414  2220.5 411.58  2220.5 408.5  C 2220.5 405.42  2222.92 403  2226 403  Z " stroke-width="1" stroke="#797979" fill="none" />
  <path d="M 2226 411.5  C 2224.32 411.5  2223 410.18  2223 408.5  C 2223 406.82  2224.32 405.5  2226 405.5  C 2227.68 405.5  2229 406.82  2229 408.5  C 2229 410.18  2227.68 411.5  2226 411.5  " fill-rule="nonzero" fill="#797979" stroke="none" />
</svg>