<?xml version="1.0" encoding="utf-8"?>
<svg version="1.1" xmlns:xlink="http://www.w3.org/1999/xlink" width="10px" height="61px" preserveAspectRatio="xMidYMin meet" viewBox="6642 60  8 61" xmlns="http://www.w3.org/2000/svg">
  <defs>
    <mask fill="white" id="clip946">
      <path d="M 6018 42  L 6138 42  L 6138 88  L 6018 88  Z M 5965 42  L 6665 42  L 6665 584  L 5965 584  Z " fill-rule="evenodd" />
    </mask>
  </defs>
  <path d="M 5968.5 584  L 5968.5 70  A 5 5 0 0 1 5973.5 65.5 L 6641 65.5  A 5 5 0 0 1 6646.5 70.5 L 6646.5 111  A 5 5 0 0 0 6651.5 116.5 L 6655 116.5  " stroke-width="1" stroke-dasharray="17,8" stroke="#f59a23" fill="none" mask="url(#clip946)" />
  <path d="M 6649.94644660941 111.853553390593  L 6654.59289321881 116.5  L 6649.94644660941 121.146446609407  L 6650.65355339059 121.853553390593  L 6655.65355339059 116.853553390593  L 6656.00710678119 116.5  L 6655.65355339059 116.146446609407  L 6650.65355339059 111.146446609407  L 6649.94644660941 111.853553390593  Z " fill-rule="nonzero" fill="#f59a23" stroke="none" mask="url(#clip946)" />
</svg>