<?xml version="1.0" encoding="utf-8"?>
<svg version="1.1" xmlns:xlink="http://www.w3.org/1999/xlink" width="100px" height="60px" xmlns="http://www.w3.org/2000/svg">
  <g transform="matrix(1 0 0 1 -5500 -306 )">
    <path d="M 5500 306  L 5600 306  L 5600 366  L 5500 366  L 5500 306  " fill-rule="nonzero" fill="#cccccc" stroke="none" />
    <path d="M 5504 310  L 5596 310  L 5596 362  L 5504 362  L 5504 310  " fill-rule="nonzero" fill="#ffffff" stroke="none" />
    <path d="M 5556.5 324  C 5553.98 324  5552 322.02  5552 319.5  C 5552 316.98  5553.98 315  5556.5 315  C 5559.02 315  5561 316.98  5561 319.5  C 5561 322.02  5559.02 324  5556.5 324  " fill-rule="nonzero" fill="#cccccc" stroke="none" />
    <path d="M 5506 361  L 5506 334.05  L 5528.25 321.8  L 5559.4 343.36  L 5577.2 329.15  L 5595 343.36  L 5595 361  L 5506 361  " fill-rule="nonzero" fill="#169bd5" stroke="none" />
  </g>
</svg>