<?xml version="1.0" encoding="utf-8"?>
<svg version="1.1" xmlns:xlink="http://www.w3.org/1999/xlink" width="300px" height="109px" xmlns="http://www.w3.org/2000/svg">
  <g transform="matrix(1 0 0 1 -6236 -614 )">
    <path d="M 6236 614  L 6536 614  L 6536 723  L 6236 723  L 6236 614  " fill-rule="nonzero" fill="#cccccc" stroke="none" />
    <path d="M 6244 622  L 6528 622  L 6528 715  L 6244 715  L 6244 622  " fill-rule="nonzero" fill="#ffffff" stroke="none" />
    <path d="M 6400.175 646.7  C 6395.597 646.7  6392 643.103  6392 638.525  C 6392 633.947  6395.597 630.35  6400.175 630.35  C 6404.753 630.35  6408.35 633.947  6408.35 638.525  C 6408.35 643.103  6404.753 646.7  6400.175 646.7  " fill-rule="nonzero" fill="#cccccc" stroke="none" />
    <path d="M 6247 713  L 6247 664.6  L 6316.75 642.6  L 6414.4 693.816  L 6470.2 655.8  L 6526 693.816  L 6526 713  L 6247 713  " fill-rule="nonzero" fill="#169bd5" stroke="none" />
  </g>
</svg>